<svg width="180" height="35" viewBox="0 0 180 35" fill="none" xmlns="http://www.w3.org/2000/svg">
<g clip-path="url(#clip0_37_3501)">
<path fill-rule="evenodd" clip-rule="evenodd" d="M25 30C26.3132 30 27.6136 29.7413 28.8268 29.2388C30.0401 28.7362 31.1425 27.9997 32.0711 27.0711C32.9997 26.1425 33.7362 25.0401 34.2388 23.8268C34.7413 22.6136 35 21.3132 35 20C35 16.0218 33.4196 12.2064 30.6066 9.3934C27.7936 6.58035 23.9782 5 20 5C16.0218 5 12.2064 6.58035 9.3934 9.3934C6.58035 12.2064 5 16.0218 5 20C5 21.3132 5.25866 22.6136 5.7612 23.8268C6.26375 25.0401 7.00035 26.1425 7.92893 27.0711C8.85752 27.9997 9.95991 28.7362 11.1732 29.2388C12.3864 29.7413 13.6868 30 15 30H25ZM20 9C17.0826 9 14.2847 10.1589 12.2218 12.2218C10.1589 14.2847 9 17.0826 9 20C9 20.7879 9.15519 21.5681 9.45672 22.2961C9.75825 23.0241 10.2002 23.6855 10.7574 24.2426C11.3145 24.7998 11.9759 25.2417 12.7039 25.5433C13.4319 25.8448 14.2121 26 15 26H25C25.7879 26 26.5681 25.8448 27.2961 25.5433C28.0241 25.2417 28.6855 24.7998 29.2426 24.2426C29.7998 23.6855 30.2417 23.0241 30.5433 22.2961C30.8448 21.5681 31 20.7879 31 20C31 17.0826 29.8411 14.2847 27.7782 12.2218C25.7153 10.1589 22.9174 9 20 9Z" fill="#F0EBE1" fill-opacity="0.6"/>
<path fill-rule="evenodd" clip-rule="evenodd" d="M13 35C11.2928 35 9.60238 34.612 8.02512 33.8582C6.44792 33.1044 5.0148 31.9995 3.80761 30.6066C2.60047 29.2137 1.64289 27.5602 0.989566 25.7403C0.336257 23.9204 0 21.9698 0 20C0 14.6957 2.10714 9.60859 5.85787 5.85786C9.60859 2.10714 14.6957 0 20 0C25.3043 0 30.3914 2.10714 34.1421 5.85786C37.8929 9.60859 40 14.6957 40 20C40 21.9698 39.6637 23.9204 39.0104 25.7403C38.3571 27.5602 37.3995 29.2137 36.1924 30.6066C34.9852 31.9995 33.5521 33.1044 31.9749 33.8582C30.3976 34.612 28.7072 35 27 35H13ZM8.68629 8.68629C11.6869 5.68571 15.7565 4 20 4C24.2435 4 28.3131 5.68571 31.3137 8.68629C34.3143 11.6869 36 15.7565 36 20C36 21.5179 35.7404 23.0107 35.2457 24.3888C34.751 25.7668 34.0376 26.9854 33.1696 27.9869C32.3026 28.9873 31.3045 29.7452 30.25 30.2492C29.1981 30.752 28.0957 31 27 31H13C11.9043 31 10.8019 30.752 9.74999 30.2492C8.69549 29.7452 7.6974 28.9873 6.83037 27.9869C5.96242 26.9854 5.24903 25.7668 4.75433 24.3888C4.25961 23.0107 4 21.5179 4 20C4 15.7565 5.68571 11.6869 8.68629 8.68629Z" fill="#F0EBE1"/>
<path d="M25 25H19.9956C19.6596 24.9997 19.3261 24.9655 19 24.899C18.368 24.77 17.7637 24.5192 17.2222 24.1573C16.3999 23.6079 15.759 22.8271 15.3806 21.9134C15.2579 21.6171 15.1645 21.3112 15.101 21C14.9686 20.3515 14.9657 19.6799 15.0961 19.0245C15.289 18.0546 15.7652 17.1637 16.4645 16.4645C17.1637 15.7652 18.0546 15.289 19.0245 15.0961C19.0549 15.09 19.0852 15.0843 19.1156 15.0788C19.4087 15.0262 19.7047 15 20 15C20.6535 15 21.3038 15.1281 21.9134 15.3806C22.827 15.759 23.6079 16.3999 24.1573 17.2221C24.7068 18.0444 25 19.0111 25 20H21C21 19.8022 20.9414 19.6089 20.8315 19.4444C20.7216 19.28 20.5654 19.1518 20.3827 19.0761C20.2 19.0004 19.9989 18.9806 19.8049 19.0192C19.6109 19.0578 19.4327 19.153 19.2929 19.2929C19.153 19.4327 19.0578 19.6109 19.0192 19.8049C18.9806 19.9989 19.0004 20.2 19.0761 20.3827C19.1518 20.5654 19.28 20.7216 19.4444 20.8315C19.6089 20.9414 19.8022 21 20 21H25C25.1313 21 25.2614 20.9741 25.3827 20.9239C25.504 20.8736 25.6142 20.8 25.7071 20.7071C25.8 20.6142 25.8736 20.504 25.9239 20.3827C25.9741 20.2614 26 20.1313 26 20C26 18.4087 25.3679 16.8826 24.2426 15.7574C23.1174 14.6321 21.5913 14 20 14C19.8274 14 19.6556 14.0074 19.485 14.0221C19.0657 14.0582 18.6535 14.1382 18.255 14.2594C17.8629 14.3785 17.484 14.5376 17.1243 14.734C16.7123 14.959 16.3255 15.233 15.973 15.5522C15.8996 15.6186 15.8277 15.687 15.7574 15.7574C15.2651 16.2496 14.8672 16.8187 14.5753 17.4363C14.4294 17.7451 14.3099 18.066 14.2185 18.3956C14.1139 18.7724 14.0459 19.1604 14.0166 19.5544C14.0056 19.7022 14 19.8508 14 20C14 20.7841 14.1537 21.5646 14.4567 22.2961C14.9109 23.3925 15.6799 24.3295 16.6666 24.9888C16.6722 24.9926 16.6778 24.9963 16.6834 25H15C14.3434 25 13.6932 24.8707 13.0866 24.6194C12.48 24.3681 11.9288 23.9998 11.4645 23.5355C11.0002 23.0712 10.6319 22.52 10.3806 21.9134C10.1293 21.3068 10 20.6566 10 20C10 17.3478 11.0536 14.8043 12.9289 12.9289C14.8043 11.0536 17.3478 10 20 10C22.6522 10 25.1957 11.0536 27.0711 12.9289C28.9464 14.8043 30 17.3478 30 20C30 20.6566 29.8707 21.3068 29.6194 21.9134C29.3681 22.52 28.9998 23.0712 28.5355 23.5355C28.0712 23.9998 27.52 24.3681 26.9134 24.6194C26.3068 24.8707 25.6566 25 25 25Z" fill="#F0EBE1" fill-opacity="0.32"/>
</g>
<path d="M55.1641 12.335H56.4766C56.4082 12.9639 56.2282 13.5267 55.9365 14.0234C55.6449 14.5202 55.2324 14.9144 54.6992 15.2061C54.166 15.4932 53.5007 15.6367 52.7031 15.6367C52.1198 15.6367 51.5889 15.5273 51.1104 15.3086C50.6364 15.0898 50.2285 14.7799 49.8867 14.3789C49.5449 13.9733 49.2806 13.488 49.0938 12.9229C48.9115 12.3532 48.8203 11.7197 48.8203 11.0225V10.0312C48.8203 9.33398 48.9115 8.7028 49.0938 8.1377C49.2806 7.56803 49.5472 7.0804 49.8936 6.6748C50.2445 6.26921 50.666 5.95703 51.1582 5.73828C51.6504 5.51953 52.2041 5.41016 52.8193 5.41016C53.5713 5.41016 54.207 5.55143 54.7266 5.83398C55.2461 6.11654 55.6494 6.50846 55.9365 7.00977C56.2282 7.50651 56.4082 8.08301 56.4766 8.73926H55.1641C55.1003 8.27441 54.9818 7.87565 54.8086 7.54297C54.6354 7.20573 54.3893 6.94596 54.0703 6.76367C53.7513 6.58138 53.3343 6.49023 52.8193 6.49023C52.3773 6.49023 51.9876 6.57454 51.6504 6.74316C51.3177 6.91178 51.0374 7.15104 50.8096 7.46094C50.5863 7.77083 50.4176 8.14225 50.3037 8.5752C50.1898 9.00814 50.1328 9.48893 50.1328 10.0176V11.0225C50.1328 11.5101 50.1829 11.9681 50.2832 12.3965C50.388 12.8249 50.5452 13.2008 50.7549 13.5244C50.9645 13.848 51.2311 14.1032 51.5547 14.29C51.8783 14.4723 52.2611 14.5635 52.7031 14.5635C53.2637 14.5635 53.7103 14.4746 54.043 14.2969C54.3757 14.1191 54.6263 13.8639 54.7949 13.5312C54.9681 13.1986 55.0911 12.7998 55.1641 12.335ZM57.748 11.8838V11.7266C57.748 11.1934 57.8255 10.6989 57.9805 10.2432C58.1354 9.78288 58.3587 9.38411 58.6504 9.04688C58.9421 8.70508 59.2952 8.44076 59.71 8.25391C60.1247 8.0625 60.5895 7.9668 61.1045 7.9668C61.624 7.9668 62.0911 8.0625 62.5059 8.25391C62.9251 8.44076 63.2806 8.70508 63.5723 9.04688C63.8685 9.38411 64.0941 9.78288 64.249 10.2432C64.404 10.6989 64.4814 11.1934 64.4814 11.7266V11.8838C64.4814 12.417 64.404 12.9115 64.249 13.3672C64.0941 13.8229 63.8685 14.2217 63.5723 14.5635C63.2806 14.9007 62.9274 15.165 62.5127 15.3564C62.1025 15.5433 61.6377 15.6367 61.1182 15.6367C60.5986 15.6367 60.1315 15.5433 59.7168 15.3564C59.3021 15.165 58.9466 14.9007 58.6504 14.5635C58.3587 14.2217 58.1354 13.8229 57.9805 13.3672C57.8255 12.9115 57.748 12.417 57.748 11.8838ZM59.0127 11.7266V11.8838C59.0127 12.2529 59.056 12.6016 59.1426 12.9297C59.2292 13.2533 59.359 13.5404 59.5322 13.791C59.71 14.0417 59.931 14.2399 60.1953 14.3857C60.4596 14.527 60.7673 14.5977 61.1182 14.5977C61.4645 14.5977 61.7676 14.527 62.0273 14.3857C62.2917 14.2399 62.5104 14.0417 62.6836 13.791C62.8568 13.5404 62.9867 13.2533 63.0732 12.9297C63.1644 12.6016 63.21 12.2529 63.21 11.8838V11.7266C63.21 11.362 63.1644 11.0179 63.0732 10.6943C62.9867 10.3662 62.8545 10.0768 62.6768 9.82617C62.5036 9.57096 62.2848 9.37044 62.0205 9.22461C61.7607 9.07878 61.4554 9.00586 61.1045 9.00586C60.7581 9.00586 60.4528 9.07878 60.1885 9.22461C59.9287 9.37044 59.71 9.57096 59.5322 9.82617C59.359 10.0768 59.2292 10.3662 59.1426 10.6943C59.056 11.0179 59.0127 11.362 59.0127 11.7266ZM65.7324 11.8838V11.7266C65.7324 11.1934 65.8099 10.6989 65.9648 10.2432C66.1198 9.78288 66.3431 9.38411 66.6348 9.04688C66.9264 8.70508 67.2796 8.44076 67.6943 8.25391C68.109 8.0625 68.5739 7.9668 69.0889 7.9668C69.6084 7.9668 70.0755 8.0625 70.4902 8.25391C70.9095 8.44076 71.265 8.70508 71.5566 9.04688C71.8529 9.38411 72.0785 9.78288 72.2334 10.2432C72.3883 10.6989 72.4658 11.1934 72.4658 11.7266V11.8838C72.4658 12.417 72.3883 12.9115 72.2334 13.3672C72.0785 13.8229 71.8529 14.2217 71.5566 14.5635C71.265 14.9007 70.9118 15.165 70.4971 15.3564C70.0869 15.5433 69.6221 15.6367 69.1025 15.6367C68.583 15.6367 68.1159 15.5433 67.7012 15.3564C67.2865 15.165 66.931 14.9007 66.6348 14.5635C66.3431 14.2217 66.1198 13.8229 65.9648 13.3672C65.8099 12.9115 65.7324 12.417 65.7324 11.8838ZM66.9971 11.7266V11.8838C66.9971 12.2529 67.0404 12.6016 67.127 12.9297C67.2135 13.2533 67.3434 13.5404 67.5166 13.791C67.6943 14.0417 67.9154 14.2399 68.1797 14.3857C68.444 14.527 68.7516 14.5977 69.1025 14.5977C69.4489 14.5977 69.752 14.527 70.0117 14.3857C70.276 14.2399 70.4948 14.0417 70.668 13.791C70.8411 13.5404 70.971 13.2533 71.0576 12.9297C71.1488 12.6016 71.1943 12.2529 71.1943 11.8838V11.7266C71.1943 11.362 71.1488 11.0179 71.0576 10.6943C70.971 10.3662 70.8389 10.0768 70.6611 9.82617C70.488 9.57096 70.2692 9.37044 70.0049 9.22461C69.7451 9.07878 69.4398 9.00586 69.0889 9.00586C68.7425 9.00586 68.4372 9.07878 68.1729 9.22461C67.9131 9.37044 67.6943 9.57096 67.5166 9.82617C67.3434 10.0768 67.2135 10.3662 67.127 10.6943C67.0404 11.0179 66.9971 11.362 66.9971 11.7266ZM75.3232 5V15.5H74.0518V5H75.3232ZM79.8418 8.10352L76.6152 11.5557L74.8105 13.4287L74.708 12.082L76 10.5371L78.2969 8.10352H79.8418ZM78.6865 15.5L76.0479 11.9727L76.7041 10.8447L80.1768 15.5H78.6865ZM85.4541 13.5381C85.4541 13.3558 85.4131 13.1872 85.3311 13.0322C85.2536 12.8727 85.0918 12.7292 84.8457 12.6016C84.6042 12.4694 84.2396 12.3555 83.752 12.2598C83.3418 12.1732 82.9704 12.0706 82.6377 11.9521C82.3096 11.8337 82.0293 11.6901 81.7969 11.5215C81.569 11.3529 81.3936 11.1546 81.2705 10.9268C81.1475 10.6989 81.0859 10.4323 81.0859 10.127C81.0859 9.83529 81.1497 9.55957 81.2773 9.2998C81.4095 9.04004 81.5941 8.8099 81.8311 8.60938C82.0726 8.40885 82.362 8.25163 82.6992 8.1377C83.0365 8.02376 83.4124 7.9668 83.8271 7.9668C84.4196 7.9668 84.9255 8.07161 85.3447 8.28125C85.764 8.49089 86.0853 8.77116 86.3086 9.12207C86.5319 9.46842 86.6436 9.85352 86.6436 10.2773H85.3789C85.3789 10.0723 85.3174 9.87402 85.1943 9.68262C85.0758 9.48665 84.9004 9.32487 84.668 9.19727C84.4401 9.06966 84.1598 9.00586 83.8271 9.00586C83.4762 9.00586 83.1914 9.06055 82.9727 9.16992C82.7585 9.27474 82.6012 9.40918 82.501 9.57324C82.4053 9.7373 82.3574 9.91048 82.3574 10.0928C82.3574 10.2295 82.3802 10.3525 82.4258 10.4619C82.4759 10.5667 82.5625 10.6647 82.6855 10.7559C82.8086 10.8424 82.9818 10.9245 83.2051 11.002C83.4284 11.0794 83.7132 11.1569 84.0596 11.2344C84.6657 11.3711 85.1647 11.5352 85.5566 11.7266C85.9486 11.918 86.2402 12.1527 86.4316 12.4307C86.623 12.7087 86.7188 13.0459 86.7188 13.4424C86.7188 13.766 86.6504 14.0622 86.5137 14.3311C86.3815 14.5999 86.1878 14.8324 85.9326 15.0283C85.682 15.2197 85.3812 15.3701 85.0303 15.4795C84.6839 15.5843 84.2943 15.6367 83.8613 15.6367C83.2096 15.6367 82.6582 15.5205 82.207 15.2881C81.7559 15.0557 81.4141 14.7549 81.1816 14.3857C80.9492 14.0166 80.833 13.627 80.833 13.2168H82.1045C82.1227 13.5632 82.223 13.8389 82.4053 14.0439C82.5876 14.2445 82.8109 14.388 83.0752 14.4746C83.3395 14.5566 83.6016 14.5977 83.8613 14.5977C84.2077 14.5977 84.4971 14.5521 84.7295 14.4609C84.9665 14.3698 85.1465 14.2445 85.2695 14.085C85.3926 13.9255 85.4541 13.7432 85.4541 13.5381ZM51.8486 29.5H49.7705L49.7842 28.4268H51.8486C52.5596 28.4268 53.152 28.2786 53.626 27.9824C54.0999 27.6816 54.4554 27.2624 54.6924 26.7246C54.9339 26.1823 55.0547 25.5488 55.0547 24.8242V24.2158C55.0547 23.6462 54.9863 23.1403 54.8496 22.6982C54.7129 22.2516 54.5124 21.8757 54.248 21.5703C53.9837 21.2604 53.6602 21.0257 53.2773 20.8662C52.8991 20.7067 52.4639 20.627 51.9717 20.627H49.7295V19.5469H51.9717C52.6234 19.5469 53.2181 19.6562 53.7559 19.875C54.2936 20.0892 54.7562 20.4014 55.1436 20.8115C55.5355 21.2171 55.8363 21.7093 56.0459 22.2881C56.2555 22.8623 56.3604 23.5094 56.3604 24.2295V24.8242C56.3604 25.5443 56.2555 26.1937 56.0459 26.7725C55.8363 27.3467 55.5332 27.8366 55.1367 28.2422C54.7448 28.6478 54.2708 28.96 53.7148 29.1787C53.1634 29.3929 52.5413 29.5 51.8486 29.5ZM50.4746 19.5469V29.5H49.1553V19.5469H50.4746ZM61.2207 29.6367C60.7057 29.6367 60.2386 29.5501 59.8193 29.377C59.4046 29.1992 59.0469 28.9508 58.7461 28.6318C58.4499 28.3128 58.222 27.9346 58.0625 27.4971C57.903 27.0596 57.8232 26.5811 57.8232 26.0615V25.7744C57.8232 25.1729 57.9121 24.6374 58.0898 24.168C58.2676 23.694 58.5091 23.293 58.8145 22.9648C59.1198 22.6367 59.4661 22.3883 59.8535 22.2197C60.2409 22.0511 60.6419 21.9668 61.0566 21.9668C61.5853 21.9668 62.041 22.0579 62.4238 22.2402C62.8112 22.4225 63.1279 22.6777 63.374 23.0059C63.6201 23.3294 63.8024 23.7122 63.9209 24.1543C64.0394 24.5918 64.0986 25.0703 64.0986 25.5898V26.1572H58.5752V25.125H62.834V25.0293C62.8158 24.7012 62.7474 24.3822 62.6289 24.0723C62.515 23.7624 62.3327 23.5072 62.082 23.3066C61.8314 23.1061 61.4896 23.0059 61.0566 23.0059C60.7695 23.0059 60.5052 23.0674 60.2637 23.1904C60.0221 23.3089 59.8148 23.4867 59.6416 23.7236C59.4684 23.9606 59.334 24.25 59.2383 24.5918C59.1426 24.9336 59.0947 25.3278 59.0947 25.7744V26.0615C59.0947 26.4124 59.1426 26.7428 59.2383 27.0527C59.3385 27.3581 59.4821 27.627 59.6689 27.8594C59.8604 28.0918 60.0905 28.2741 60.3594 28.4062C60.6328 28.5384 60.9427 28.6045 61.2891 28.6045C61.7357 28.6045 62.1139 28.5133 62.4238 28.3311C62.7337 28.1488 63.0049 27.9049 63.2373 27.5996L64.0029 28.208C63.8434 28.4495 63.6406 28.6797 63.3945 28.8984C63.1484 29.1172 62.8454 29.2949 62.4854 29.4316C62.1299 29.5684 61.7083 29.6367 61.2207 29.6367ZM66.9492 19V29.5H65.6777V19H66.9492ZM70.3535 22.1035V29.5H69.082V22.1035H70.3535ZM68.9863 20.1416C68.9863 19.9365 69.0479 19.7633 69.1709 19.6221C69.2985 19.4808 69.4854 19.4102 69.7314 19.4102C69.973 19.4102 70.1576 19.4808 70.2852 19.6221C70.4173 19.7633 70.4834 19.9365 70.4834 20.1416C70.4834 20.3376 70.4173 20.5062 70.2852 20.6475C70.1576 20.7842 69.973 20.8525 69.7314 20.8525C69.4854 20.8525 69.2985 20.7842 69.1709 20.6475C69.0479 20.5062 68.9863 20.3376 68.9863 20.1416ZM77.1758 22.1035H78.3242V29.3428C78.3242 29.9945 78.1921 30.5505 77.9277 31.0107C77.6634 31.471 77.2943 31.8197 76.8203 32.0566C76.3509 32.2982 75.8086 32.4189 75.1934 32.4189C74.9382 32.4189 74.6374 32.3779 74.291 32.2959C73.9492 32.2184 73.612 32.084 73.2793 31.8926C72.9512 31.7057 72.6755 31.4528 72.4521 31.1338L73.1152 30.3818C73.4251 30.7555 73.7487 31.0153 74.0859 31.1611C74.4277 31.307 74.765 31.3799 75.0977 31.3799C75.4987 31.3799 75.8451 31.3047 76.1367 31.1543C76.4284 31.0039 76.654 30.7806 76.8135 30.4844C76.9775 30.1927 77.0596 29.8327 77.0596 29.4043V23.7305L77.1758 22.1035ZM72.083 25.8838V25.7402C72.083 25.1751 72.1491 24.6624 72.2812 24.2021C72.418 23.7373 72.6117 23.3385 72.8623 23.0059C73.1175 22.6732 73.4251 22.418 73.7852 22.2402C74.1452 22.0579 74.5508 21.9668 75.002 21.9668C75.4668 21.9668 75.8724 22.0488 76.2188 22.2129C76.5697 22.3724 76.8659 22.6071 77.1074 22.917C77.3535 23.2223 77.5472 23.5915 77.6885 24.0244C77.8298 24.4574 77.9277 24.9473 77.9824 25.4941V26.123C77.9323 26.6654 77.8343 27.153 77.6885 27.5859C77.5472 28.0189 77.3535 28.388 77.1074 28.6934C76.8659 28.9987 76.5697 29.2334 76.2188 29.3975C75.8678 29.557 75.4577 29.6367 74.9883 29.6367C74.5462 29.6367 74.1452 29.5433 73.7852 29.3564C73.4297 29.1696 73.1243 28.9076 72.8691 28.5703C72.6139 28.2331 72.418 27.8366 72.2812 27.3809C72.1491 26.9206 72.083 26.4215 72.083 25.8838ZM73.3477 25.7402V25.8838C73.3477 26.2529 73.3841 26.5993 73.457 26.9229C73.5345 27.2464 73.6507 27.5312 73.8057 27.7773C73.9652 28.0234 74.168 28.2171 74.4141 28.3584C74.6602 28.4951 74.9541 28.5635 75.2959 28.5635C75.7152 28.5635 76.0615 28.4746 76.335 28.2969C76.6084 28.1191 76.8249 27.8844 76.9844 27.5928C77.1484 27.3011 77.276 26.9844 77.3672 26.6426V24.9951C77.3171 24.7445 77.2396 24.5029 77.1348 24.2705C77.0345 24.0335 76.9023 23.8239 76.7383 23.6416C76.5788 23.4548 76.3805 23.3066 76.1436 23.1973C75.9066 23.0879 75.6286 23.0332 75.3096 23.0332C74.9632 23.0332 74.6647 23.1061 74.4141 23.252C74.168 23.3932 73.9652 23.5892 73.8057 23.8398C73.6507 24.0859 73.5345 24.373 73.457 24.7012C73.3841 25.0247 73.3477 25.3711 73.3477 25.7402ZM81.5098 19V29.5H80.2451V19H81.5098ZM81.209 25.5215L80.6826 25.501C80.6872 24.9951 80.7624 24.528 80.9082 24.0996C81.054 23.6667 81.2591 23.2907 81.5234 22.9717C81.7878 22.6527 82.1022 22.4066 82.4668 22.2334C82.8359 22.0557 83.2438 21.9668 83.6904 21.9668C84.055 21.9668 84.3831 22.0169 84.6748 22.1172C84.9665 22.2129 85.2148 22.3678 85.4199 22.582C85.6296 22.7962 85.7891 23.0742 85.8984 23.416C86.0078 23.7533 86.0625 24.1657 86.0625 24.6533V29.5H84.791V24.6396C84.791 24.2523 84.734 23.9424 84.6201 23.71C84.5062 23.473 84.3398 23.3021 84.1211 23.1973C83.9023 23.0879 83.6335 23.0332 83.3145 23.0332C83 23.0332 82.7129 23.0993 82.4531 23.2314C82.1979 23.3636 81.9769 23.5459 81.79 23.7783C81.6077 24.0107 81.4642 24.2773 81.3594 24.5781C81.2591 24.8743 81.209 25.1888 81.209 25.5215ZM91.0527 22.1035V23.0742H87.0537V22.1035H91.0527ZM88.4072 20.3057H89.6719V27.668C89.6719 27.9186 89.7106 28.1077 89.7881 28.2354C89.8656 28.363 89.9658 28.4473 90.0889 28.4883C90.2119 28.5293 90.3441 28.5498 90.4854 28.5498C90.5902 28.5498 90.6995 28.5407 90.8135 28.5225C90.932 28.4997 91.0208 28.4814 91.0801 28.4678L91.0869 29.5C90.9867 29.5319 90.8545 29.5615 90.6904 29.5889C90.5309 29.6208 90.3372 29.6367 90.1094 29.6367C89.7995 29.6367 89.5146 29.5752 89.2549 29.4521C88.9951 29.3291 88.7878 29.124 88.6328 28.8369C88.4824 28.5452 88.4072 28.1533 88.4072 27.6611V20.3057Z" fill="#F0EBE1"/>
<defs>
<clipPath id="clip0_37_3501">
<rect width="40" height="35" fill="white"/>
</clipPath>
</defs>
</svg>
