<svg width="66" height="66" viewBox="0 0 66 66" fill="none" xmlns="http://www.w3.org/2000/svg">
<rect width="66" height="66" rx="33" fill="#9FDC26"/>
<g clip-path="url(#clip0_29_35)">
<path d="M33.1555 43.0401C30.7334 43.0401 28.6929 42.0014 27.4148 40.0697C26.2448 38.3012 25.9585 36.0573 26.7495 34.8496C27.1621 34.2194 27.83 33.934 28.5924 34.0662C29.7826 34.2746 31.6632 36.1528 32.1855 37.6543C32.5178 38.6084 32.2508 39.1876 31.9679 39.5048C31.4917 40.0396 30.8154 40.222 30.1082 40.0019C29.0101 39.6604 28.0225 38.3866 27.8609 37.1019C27.8493 37.0195 27.8541 36.9356 27.8751 36.855C27.8962 36.7745 27.9331 36.699 27.9836 36.6328C28.0341 36.5667 28.0972 36.5112 28.1694 36.4697C28.2415 36.4282 28.3212 36.4015 28.4038 36.391C28.4863 36.3806 28.5702 36.3867 28.6504 36.409C28.7306 36.4312 28.8055 36.4692 28.8709 36.5207C28.9363 36.5722 28.9908 36.6362 29.0312 36.709C29.0716 36.7817 29.0972 36.8618 29.1063 36.9445C29.2168 37.8225 29.919 38.6285 30.4806 38.8026C30.7777 38.8946 30.925 38.7867 31.0297 38.6687C31.1108 38.5783 31.0991 38.3531 30.9995 38.066C30.576 36.8491 29.0101 35.4137 28.3748 35.3024C28.1087 35.2572 27.9371 35.3258 27.799 35.5368C27.3479 36.2256 27.5061 37.933 28.461 39.3759C29.2068 40.5024 30.992 42.2969 34.5758 41.6524C39.1883 40.8238 39.431 36.9152 39.2126 34.047L39.2017 33.9039C39.1431 33.1104 38.5497 32.471 37.4382 32.0015C35.5317 31.1971 33.0819 31.3168 32.5462 31.6165C32.4475 32.2609 32.5646 32.7405 32.9053 33.0803C33.908 34.0813 36.5745 33.8344 37.5169 33.6553C37.6787 33.6265 37.8453 33.6623 37.981 33.755C38.1166 33.8477 38.2105 33.9899 38.2425 34.1511C38.2745 34.3123 38.242 34.4795 38.1521 34.617C38.0621 34.7545 37.9218 34.8512 37.7613 34.8864C36.0229 35.2455 34.9232 35.9167 34.4938 36.8834C33.8644 38.2996 34.8378 39.9877 34.8479 40.0053C34.9265 40.1481 34.9465 40.316 34.9036 40.4733C34.8607 40.6306 34.7582 40.7651 34.6179 40.8482C34.4776 40.9313 34.3104 40.9565 34.1518 40.9185C33.9932 40.8806 33.8556 40.7824 33.7682 40.6447C33.7138 40.5535 32.455 38.395 33.343 36.3821C33.5838 35.8432 33.9479 35.3684 34.4059 34.9961C33.5112 34.8697 32.6274 34.5751 32.0198 33.9683C31.5611 33.5105 31.0698 32.6702 31.3343 31.2666C31.5544 30.0982 33.7866 30.0974 34.7357 30.1509C37.26 30.2932 40.273 31.3369 40.4555 33.8118L40.4663 33.9516C40.8614 39.1348 38.9548 42.142 34.8002 42.8886C34.2352 42.9899 33.6862 43.0401 33.1555 43.0401Z" fill="#262522"/>
<path d="M32.6878 38.149C31.4767 38.149 30.1284 36.6684 29.5434 36.0265C28.5114 34.8941 27.9766 33.6863 28.0753 32.713C28.1314 32.1572 28.3867 31.6986 28.8127 31.3881C29.8597 30.6256 31.4901 31.2215 32.6886 32.8042C33.3364 33.6596 35.3075 36.2625 33.6177 37.7832C33.3658 38.0195 33.0331 38.1503 32.6878 38.149ZM29.8564 32.3154C29.7485 32.311 29.642 32.3412 29.5526 32.4016C29.4672 32.4635 29.3509 32.5765 29.3241 32.8385C29.2764 33.3097 29.5526 34.1726 30.4715 35.1811C32.2953 37.1831 32.774 36.8534 32.7782 36.8492C33.4662 36.2299 32.5656 34.72 31.6876 33.5616C31.0675 32.7414 30.3259 32.3154 29.8564 32.3154Z" fill="#262522"/>
<path d="M31.9714 33.3322C31.8901 33.3323 31.8096 33.3163 31.7344 33.2851C31.6593 33.2539 31.5911 33.2082 31.5337 33.1506L31.5253 33.1422C31.5 33.1168 31.4767 33.0894 31.4559 33.0602C29.9142 30.8757 28.1574 26.3394 28.9132 24.2052C29.1902 23.4251 29.7217 23.128 30.1184 23.015C30.4256 22.928 30.9102 22.8962 31.4701 23.2351C33.2645 24.3207 34.5292 28.354 34.9929 30.566C35.0132 30.6479 35.0169 30.7331 35.0036 30.8164C34.9903 30.8997 34.9603 30.9795 34.9155 31.051C34.8707 31.1225 34.8119 31.1842 34.7427 31.2325C34.6735 31.2807 34.5953 31.3145 34.5127 31.3319C34.4301 31.3492 34.3449 31.3497 34.2621 31.3334C34.1793 31.317 34.1007 31.2842 34.0309 31.2367C33.9611 31.1893 33.9016 31.1283 33.8559 31.0574C33.8102 30.9864 33.7793 30.907 33.765 30.8238C33.1273 27.784 31.8333 24.9224 30.8206 24.3098C30.608 24.1817 30.5009 24.2119 30.4599 24.2236C30.3461 24.2554 30.2013 24.3307 30.0975 24.6245C29.5577 26.1486 30.9771 30.1969 32.4761 32.3278C32.5655 32.449 32.6086 32.5981 32.5979 32.7483C32.5871 32.8985 32.5232 33.0399 32.4175 33.1472C32.2992 33.2655 32.1388 33.332 31.9714 33.3322Z" fill="#262522"/>
<path d="M37.5918 32.0132C37.4803 32.0132 37.3708 31.9835 37.2746 31.9271C37.1783 31.8708 37.0989 31.7898 37.0443 31.6925C36.9898 31.5953 36.9621 31.4853 36.9642 31.3738C36.9663 31.2623 36.998 31.1534 37.0561 31.0582C38.6229 28.4938 39.5779 25.5577 39.1854 24.5149C39.1092 24.3123 39.0062 24.2554 38.9058 24.2245C38.4865 24.0897 37.4369 24.7827 35.1571 30.8925C35.1282 30.9697 35.0845 31.0404 35.0283 31.1006C34.9721 31.1609 34.9046 31.2094 34.8296 31.2436C34.7547 31.2778 34.6737 31.2968 34.5914 31.2997C34.5091 31.3026 34.427 31.2892 34.3498 31.2603C34.2727 31.2315 34.202 31.1877 34.1417 31.1315C34.0815 31.0754 34.0329 31.0079 33.9987 30.9329C33.9646 30.8579 33.9455 30.777 33.9426 30.6947C33.9398 30.6123 33.9531 30.5302 33.982 30.4531C35.5186 26.3361 37.1942 22.3756 39.2824 23.0251C39.7913 23.1841 40.1646 23.5465 40.363 24.0713C41.0961 26.0214 39.223 29.9216 38.13 31.7119C38.0736 31.804 37.9945 31.8801 37.9002 31.9329C37.806 31.9856 37.6998 32.0133 37.5918 32.0132Z" fill="#262522"/>
</g>
<path d="M12.9396 34.0663L7.14965 31.5386L7.28974 30.1458L14.3469 33.5069L14.2524 34.4472L12.9396 34.0663ZM6.7769 35.2445L12.9528 33.9356L14.3166 33.8086L14.2215 34.754L6.6373 36.6323L6.7769 35.2445Z" fill="#262522"/>
<path d="M15.2502 25.7158L16.2067 26.0262L15.0009 29.7419L14.0443 29.4315L15.2502 25.7158ZM8.11282 27.1293L15.1116 29.4007L14.72 30.6072L7.72125 28.3358L8.11282 27.1293ZM11.973 25.1888L12.9151 25.4946L11.8668 28.7248L10.9246 28.419L11.973 25.1888ZM9.20015 23.7789L10.1615 24.0909L8.96343 27.7826L8.00205 27.4706L9.20015 23.7789Z" fill="#262522"/>
<path d="M16.3122 18.1033L18.7047 19.5767C18.7676 19.7381 18.811 19.9567 18.835 20.2326C18.8578 20.5039 18.8241 20.8254 18.7337 21.197C18.6433 21.5687 18.4559 21.9855 18.1714 22.4473C17.9294 22.8404 17.6417 23.1598 17.3084 23.4055C16.9721 23.6495 16.6016 23.8111 16.1968 23.8902C15.7937 23.9664 15.3674 23.9552 14.9178 23.8564C14.4654 23.7558 14.0011 23.5589 13.5248 23.2656L13.0902 22.998C12.6169 22.7065 12.2314 22.3879 11.9337 22.0424C11.635 21.6923 11.4254 21.3258 11.305 20.9431C11.1847 20.5603 11.1556 20.1705 11.218 19.7737C11.2793 19.3722 11.4336 18.9706 11.6809 18.569C11.9971 18.0555 12.3447 17.6839 12.7235 17.4543C13.1012 17.22 13.4972 17.1038 13.9115 17.1057C14.3258 17.1076 14.7416 17.2034 15.1589 17.3931L14.507 18.4517C14.2678 18.3519 14.0312 18.2992 13.7972 18.2936C13.565 18.2851 13.3437 18.3426 13.133 18.4662C12.9213 18.5851 12.7263 18.7894 12.5478 19.0792C12.3941 19.3287 12.3063 19.5773 12.2844 19.825C12.2625 20.0726 12.3044 20.3161 12.4103 20.5554C12.5179 20.7918 12.6843 21.0228 12.9093 21.2485C13.1344 21.4741 13.4162 21.6912 13.7547 21.8997L14.1979 22.1726C14.5422 22.3846 14.8698 22.5369 15.1808 22.6295C15.4935 22.7192 15.7841 22.7517 16.0525 22.7271C16.3226 22.6996 16.5669 22.6146 16.7852 22.4721C17.0007 22.3278 17.1861 22.1294 17.3416 21.877C17.4935 21.6302 17.598 21.4156 17.655 21.2331C17.7092 21.0488 17.7358 20.8931 17.735 20.766C17.733 20.6342 17.7207 20.5257 17.698 20.4405L16.4544 19.6747L15.6514 20.9785L14.8467 20.483L16.3122 18.1033Z" fill="#262522"/>
<path d="M18.3247 11.82L21.1025 17.9676L20.1358 18.8797L17.1005 11.6271L17.7181 11.0445L18.3247 11.82ZM24.0395 15.1965L18.0601 12.0697L17.3174 11.4225L17.9386 10.8364L25.0099 14.2809L24.0395 15.1965ZM22.0895 13.2844L22.7797 14.0159L19.8684 16.7626L19.1783 16.0312L22.0895 13.2844Z" fill="#262522"/>
<path d="M27.8693 3.99707L31.3518 10.4789L30.2344 11.0793L24.8327 7.99788L27.3274 12.6411L26.2099 13.2415L22.7275 6.75962L23.8449 6.15927L29.2603 9.2448L26.7608 4.59263L27.8693 3.99707Z" fill="#262522"/>
<path d="M52.6053 30.588L58.3953 33.1157L58.2552 34.5085L51.198 31.1474L51.2926 30.2071L52.6053 30.588ZM58.768 29.4098L52.5922 30.7187L51.2283 30.8457L51.3234 29.9003L58.9076 28.022L58.768 29.4098Z" fill="#262522"/>
<path d="M50.2947 38.9385L49.3382 38.6281L50.5441 34.9124L51.5006 35.2228L50.2947 38.9385ZM57.4321 37.525L50.4333 35.2536L50.8249 34.0471L57.8237 36.3185L57.4321 37.525ZM53.572 39.4655L52.6298 39.1597L53.6781 35.9295L54.6203 36.2353L53.572 39.4655ZM56.3448 40.8754L55.3834 40.5634L56.5815 36.8717L57.5429 37.1837L56.3448 40.8754Z" fill="#262522"/>
<path d="M49.2328 46.551L46.8402 45.0776C46.7773 44.9162 46.7339 44.6976 46.71 44.4217C46.6871 44.1504 46.7209 43.8289 46.8112 43.4573C46.9016 43.0856 47.089 42.6688 47.3735 42.207C47.6155 41.8139 47.9032 41.4945 48.2366 41.2488C48.5728 41.0048 48.9433 40.8432 49.3482 40.7641C49.7512 40.6879 50.1775 40.6991 50.6271 40.7979C51.0795 40.8985 51.5439 41.0954 52.0201 41.3887L52.4547 41.6563C52.928 41.9478 53.3135 42.2663 53.6112 42.6119C53.9099 42.962 54.1195 43.3285 54.2399 43.7112C54.3603 44.094 54.3893 44.4838 54.3269 44.8806C54.2656 45.2821 54.1113 45.6837 53.864 46.0853C53.5478 46.5988 53.2003 46.9704 52.8214 47.2C52.4437 47.4343 52.0477 47.5505 51.6334 47.5486C51.2191 47.5467 50.8033 47.4509 50.386 47.2612L51.0379 46.2026C51.2771 46.3024 51.5137 46.3551 51.7477 46.3607C51.9799 46.3692 52.2013 46.3117 52.4119 46.1881C52.6236 46.0692 52.8187 45.8649 52.9971 45.5751C53.1508 45.3256 53.2386 45.077 53.2605 44.8293C53.2825 44.5817 53.2405 44.3382 53.1346 44.0989C53.027 43.8625 52.8606 43.6315 52.6356 43.4058C52.4105 43.1802 52.1287 42.9631 51.7902 42.7546L51.347 42.4817C51.0027 42.2697 50.6751 42.1174 50.3642 42.0248C50.0514 41.9351 49.7609 41.9026 49.4925 41.9272C49.2223 41.9547 48.978 42.0397 48.7597 42.1822C48.5442 42.3265 48.3588 42.5249 48.2033 42.7773C48.0514 43.0241 47.9469 43.2387 47.8899 43.4212C47.8358 43.6055 47.8091 43.7612 47.81 43.8883C47.8119 44.0201 47.8242 44.1286 47.8469 44.2138L49.0906 44.9796L49.8935 43.6758L50.6982 44.1713L49.2328 46.551Z" fill="#262522"/>
<path d="M47.2202 52.8343L44.4424 46.6867L45.4092 45.7746L48.4444 53.0272L47.8269 53.6098L47.2202 52.8343ZM41.5054 49.4578L47.4849 52.5846L48.2275 53.2318L47.6063 53.8179L40.535 50.3734L41.5054 49.4578ZM43.4554 51.3699L42.7653 50.6384L45.6765 47.8916L46.3667 48.6231L43.4554 51.3699Z" fill="#262522"/>
<path d="M37.6756 60.6572L34.1931 54.1754L35.3105 53.575L40.7122 56.6564L38.2176 52.0132L39.335 51.4128L42.8175 57.8947L41.7001 58.495L36.2847 55.4095L38.7841 60.0617L37.6756 60.6572Z" fill="#262522"/>
<defs>
<clipPath id="clip0_29_35">
<rect width="20.087" height="20.087" fill="white" transform="translate(22.9565 22.9565)"/>
</clipPath>
</defs>
</svg>
