<svg width="24" height="24" viewBox="0 0 24 24" fill="none" xmlns="http://www.w3.org/2000/svg">
<path d="M8.72727 11.25C8.31306 11.25 7.97727 11.5858 7.97727 12C7.97727 12.4142 8.31306 12.75 8.72727 12.75L8.72727 11.25ZM15.2727 12.75C15.6869 12.75 16.0227 12.4142 16.0227 12C16.0227 11.5858 15.6869 11.25 15.2727 11.25L15.2727 12.75ZM11.25 15.2727C11.25 15.6869 11.5858 16.0227 12 16.0227C12.4142 16.0227 12.75 15.6869 12.75 15.2727H11.25ZM12.75 8.72727C12.75 8.31306 12.4142 7.97727 12 7.97727C11.5858 7.97727 11.25 8.31306 11.25 8.72727L12.75 8.72727ZM3.75 12C3.75 7.44365 7.44365 3.75 12 3.75V2.25C6.61522 2.25 2.25 6.61522 2.25 12H3.75ZM12 3.75C16.5563 3.75 20.25 7.44365 20.25 12H21.75C21.75 6.61522 17.3848 2.25 12 2.25V3.75ZM20.25 12C20.25 16.5563 16.5563 20.25 12 20.25V21.75C17.3848 21.75 21.75 17.3848 21.75 12H20.25ZM12 20.25C7.44365 20.25 3.75 16.5563 3.75 12H2.25C2.25 17.3848 6.61522 21.75 12 21.75V20.25ZM8.72727 12.75L12 12.75L12 11.25L8.72727 11.25L8.72727 12.75ZM12 12.75L15.2727 12.75L15.2727 11.25L12 11.25L12 12.75ZM12.75 15.2727V12H11.25V15.2727H12.75ZM12.75 12V8.72727L11.25 8.72727V12H12.75Z" fill="#262424"/>
</svg>
