<svg width="90" height="90" viewBox="0 0 90 90" fill="none" xmlns="http://www.w3.org/2000/svg">
<g clip-path="url(#clip0_1525_22095)">
<rect width="90" height="90" fill="white"/>
<path d="M57.3189 26C52.6538 26 48.3531 27.5481 45 30.2222C41.6469 27.5481 37.3462 26 32.6811 26C21.82 26 13 34.5148 13 45C13 55.4852 21.82 64 32.6811 64C37.3462 64 41.6469 62.4519 45 59.7778C48.3531 62.3815 52.6538 64 57.3189 64C68.18 64 77 55.4852 77 45C77 34.5148 68.18 26 57.3189 26ZM46.0934 45C46.0934 48.5889 44.5626 51.8259 42.1572 54.1481C39.8246 52.037 37.4191 49.9963 38.7312 46.6889C39.8975 43.663 42.8132 43.3111 45.9476 42.9593C46.0205 43.5926 46.0934 44.2963 46.0934 45ZM48.2073 33.3889C48.2802 33.4593 48.3531 33.6 48.426 33.6704C48.3531 33.5296 48.2802 33.4593 48.2073 33.3889ZM47.4784 57.5963C47.4055 57.737 47.2597 57.8074 47.1868 57.9481C47.2597 57.8074 47.3326 57.737 47.4784 57.5963ZM46.3121 31.2778C46.1663 31.137 46.0934 31.0667 45.9476 30.9259C46.0205 31.0667 46.1663 31.137 46.3121 31.2778ZM44.6355 39.1593C41.8656 40.7074 39.2415 42.1852 36.3257 40.0741C33.4829 38.0333 34.139 35.1481 34.795 32.263C39.0957 32.8963 42.6674 35.5704 44.6355 39.1593ZM32.8269 41.4111C34.795 41.4111 36.6173 43.1704 36.5444 45C36.4715 46.9 34.795 48.5185 32.754 48.5185C30.6401 48.5185 29.1093 46.9704 29.1093 44.9296C29.0364 42.9593 30.6401 41.4111 32.8269 41.4111ZM30.713 32.263C30.8588 33.6704 31.0774 34.8667 31.0774 36.063C31.0774 38.5259 29.8383 40.4259 27.7973 40.7778C26.4123 40.9889 24.9544 40.7778 23.5695 40.4259C22.6219 40.2148 21.7472 39.6519 20.7267 39.1593C22.6948 35.5 26.3394 32.8963 30.713 32.263ZM19.4875 42.9593C20.4351 43.1 21.3098 43.1704 22.1116 43.3815C27.2141 44.437 28.5991 48.3778 25.246 52.2481C24.6629 52.9519 24.0068 53.5148 23.205 54.2889C20.7267 51.9667 19.1959 48.7296 19.1959 45.0704C19.3417 44.2963 19.4146 43.5926 19.4875 42.9593ZM26.7039 56.5407C27.9431 53.7259 29.1822 51.1222 32.6082 50.9815C36.18 50.9111 37.5649 53.5852 38.877 56.4704C37.0547 57.3852 34.9408 57.9481 32.754 57.9481C30.5672 57.9481 28.5262 57.4556 26.7039 56.5407ZM45.9476 59.0741C46.0934 58.9333 46.1663 58.863 46.3121 58.7222C46.1663 58.863 46.0205 58.9333 45.9476 59.0741ZM57.246 57.9481C54.2574 57.9481 51.4146 56.963 49.2278 55.3444C51.1959 52.3185 52.3622 48.8 52.3622 45C52.3622 41.2 51.1959 37.6815 49.2278 34.7259C51.4875 33.1074 54.2574 32.1222 57.246 32.1222C64.6082 32.1222 70.6583 37.8926 70.6583 45.0704C70.6583 52.2481 64.6811 57.9481 57.246 57.9481Z" fill="#262424"/>
</g>
<defs>
<clipPath id="clip0_1525_22095">
<rect width="90" height="90" rx="12" fill="white"/>
</clipPath>
</defs>
</svg>
