<svg viewBox="0 0 120 93" fill="none"  preserveAspectRatio="xMidYMid meet" xmlns="http://www.w3.org/2000/svg">
<path d="M104.294 93H94.0472C91.4028 93 89.0889 90.6833 89.0889 88.0356V81.4164H30.9111V88.0356C30.9111 90.6833 28.5972 93 25.9528 93H15.7056C13.0611 93 10.7472 90.6833 10.7472 88.0356V81.4164H8.76389C4.13611 81.4164 0.5 77.4448 0.5 72.8114V47.9893C0.5 44.0178 1.82222 37.7295 3.80556 34.089L17.0278 6.95018C19.0111 2.97865 23.9694 0 28.2667 0H90.4111C94.7083 0 99.6667 2.97865 101.65 6.95018L115.864 34.089C117.847 37.7295 119.169 43.6868 119.169 47.9893V72.8114C119.169 77.4448 115.533 81.4164 110.906 81.4164H109.253V88.0356C109.253 90.6833 106.939 93 104.294 93ZM27.6056 77.7758H92.3944V87.7046C92.3944 88.6975 93.0556 89.6904 94.0472 89.6904H104.294C105.286 89.6904 105.947 89.0285 105.947 87.7046V77.7758H110.906C113.881 77.7758 116.194 75.4591 116.194 72.4804V47.6584C116.194 44.0178 114.872 38.3915 113.219 35.4128L99.0056 8.27402C97.6833 5.62633 93.7167 3.30961 90.4111 3.30961H28.2667C25.2917 3.30961 21.325 5.62633 20.0028 8.60498L6.78056 35.7438C5.12778 39.0534 3.80556 44.6797 3.80556 47.9893V72.8114C3.80556 75.79 6.11944 78.1068 9.09444 78.1068H14.0528V88.0356C14.0528 89.0285 14.7139 90.0214 15.7056 90.0214H25.9528C26.9444 90.0214 27.6056 89.3594 27.6056 88.0356V77.7758ZM18.35 69.8327C14.0528 69.8327 10.4167 66.1922 10.4167 61.8897C10.4167 57.2562 14.0528 53.6157 18.35 53.6157C22.6472 53.6157 26.2833 57.2562 26.2833 61.8897C26.2833 66.1922 22.6472 69.8327 18.35 69.8327ZM18.35 56.9253C15.7056 56.9253 13.7222 59.242 13.7222 61.8897C13.7222 64.5374 15.7056 66.8541 18.35 66.8541C20.9944 66.8541 22.9778 64.5374 22.9778 61.8897C23.3083 58.911 20.9944 56.9253 18.35 56.9253ZM102.311 69.1708C98.0139 69.1708 94.3778 65.5302 94.3778 60.8968C94.3778 56.2633 98.0139 52.6228 102.311 52.6228C106.608 52.6228 110.244 56.2633 110.244 60.8968C110.244 65.5302 106.608 69.1708 102.311 69.1708ZM102.311 56.2633C99.6667 56.2633 97.6833 58.5801 97.6833 61.2278C97.6833 63.8754 99.6667 66.1922 102.311 66.1922C104.956 66.1922 106.939 63.8754 106.939 61.2278C106.939 58.5801 104.625 56.2633 102.311 56.2633ZM88.0972 68.1779H31.9028V56.5943H88.0972V68.1779ZM35.2083 64.8683H84.7917V59.9039H35.2083V64.8683ZM97.3528 34.7509H22.6472C20.3333 34.7509 18.35 33.758 17.3583 32.1032C16.3667 30.7794 16.3667 28.4626 17.6889 26.4769L23.3083 14.8932C25.2917 10.9217 30.25 7.94306 34.5472 7.94306H84.7917C89.0889 7.94306 94.0472 10.9217 96.0306 14.8932L102.311 26.4769C103.303 28.4626 103.303 30.7794 102.311 32.4342C101.319 34.089 99.6667 34.7509 97.3528 34.7509ZM34.5472 10.9217C31.2417 10.9217 27.6056 13.2384 25.9528 16.2171L20.3333 27.8007C20.0028 28.7936 19.6722 30.1174 20.3333 30.7794C20.6639 31.4413 21.6556 31.7722 22.9778 31.7722H97.3528C98.675 31.7722 99.3361 31.4413 99.6667 30.7794C99.9972 30.1174 99.9972 29.1246 99.3361 28.1317L93.3861 16.2171C92.0639 13.2384 88.0972 10.9217 84.7917 10.9217H34.5472Z" fill="#D4D3D3"/>
</svg>
