<svg width="58" height="32" viewBox="0 0 58 32" fill="none" xmlns="http://www.w3.org/2000/svg">
<path d="M6.2039 25.4185H7.96036C8.52874 28.6711 11.3666 31.1537 14.7804 31.1537C18.1934 31.1537 21.0309 28.6711 21.5993 25.4185H35.1054C35.6738 28.6711 38.5113 31.1537 41.9243 31.1537C45.3381 31.1537 48.176 28.6711 48.7443 25.4185H55.1563C56.4482 25.4185 57.4987 24.368 57.4987 23.0762V16.6321C57.4987 13.3407 54.8205 10.6626 51.5291 10.6626H44.4071C40.0136 6.46647 37.9409 0.960938 31.5161 0.960938H17.1298C13.8628 0.960938 10.8583 2.60197 9.09189 5.35122L5.68274 10.6626H1.42828C0.768373 10.6626 0.234375 11.1972 0.234375 11.8565V19.449C0.234375 22.7404 2.91249 25.4185 6.2039 25.4185ZM14.7804 28.7659C12.2813 28.7659 10.2482 26.7366 10.2394 24.24C10.2397 24.2345 10.2427 24.2301 10.2427 24.2246C10.2427 24.219 10.2397 24.2147 10.2394 24.2091C10.2482 21.712 12.2813 19.6827 14.7804 19.6827C17.2848 19.6827 19.3217 21.7202 19.3217 24.2246C19.3217 26.7284 17.2848 28.7659 14.7804 28.7659ZM41.9243 28.7659C39.4199 28.7659 37.383 26.7284 37.383 24.2246C37.383 21.7202 39.4199 19.6827 41.9243 19.6827C44.426 19.6827 46.4617 21.7161 46.4658 24.2169C46.4658 24.2196 46.4644 24.222 46.4644 24.2246C46.4644 24.2272 46.4658 24.2295 46.4658 24.2323C46.4617 26.7325 44.426 28.7659 41.9243 28.7659ZM41.2165 10.6626H26.0339V3.34875H31.5161C36.336 3.34875 37.9159 7.50732 41.2165 10.6626ZM11.1019 6.64189C12.4264 4.57996 14.679 3.34875 17.1298 3.34875H23.6461V10.6626H8.51942L11.1019 6.64189ZM2.62218 13.0504C5.35108 13.0504 53.37 13.0504 51.5291 13.0504C53.5042 13.0504 55.1109 14.657 55.1109 16.6321L55.1563 23.0307H48.7443C48.176 19.7775 45.3384 17.2949 41.9243 17.2949C38.5113 17.2949 35.6738 19.7775 35.1054 23.0307H21.5993C21.0309 19.7775 18.1934 17.2949 14.7804 17.2949C11.3663 17.2949 8.52874 19.7775 7.96036 23.0307H6.2039C4.22882 23.0307 2.62218 21.4241 2.62218 19.449V13.0504Z"/>
</svg>
