<svg width="32" height="32" viewBox="0 0 32 32" fill="none" xmlns="http://www.w3.org/2000/svg">
<path fill-rule="evenodd" clip-rule="evenodd" d="M26.2998 9.48168C22.825 3.97615 15.5928 2.15489 9.90653 5.43973C6.39871 7.46613 4.27804 10.9732 3.87946 14.7199C3.82678 15.2151 3.38278 15.5739 2.88778 15.5212C2.39278 15.4685 2.03421 15.0242 2.0869 14.5289C2.54384 10.2336 4.97726 6.20451 9.00518 3.87766C15.4727 0.141507 23.6825 2.15974 27.7126 8.34472L28.2278 6.42083C28.3566 5.93972 28.8509 5.6542 29.3317 5.78312C29.8126 5.91203 30.0979 6.40655 29.9691 6.88767L28.8419 11.0969C28.713 11.578 28.2188 11.8635 27.7379 11.7346L23.5311 10.6067C23.0503 10.4778 22.7649 9.9833 22.8938 9.50218C23.0226 9.02107 23.5169 8.73556 23.9977 8.86447L26.2998 9.48168ZM16 8.16505C16.4978 8.16505 16.9013 8.56883 16.9013 9.06691V15.4893L20.3132 17.5376C20.7401 17.7939 20.8785 18.3479 20.6224 18.775C20.3663 19.2021 19.8126 19.3406 19.3858 19.0843L15.5363 16.7733C15.2648 16.6103 15.0987 16.3168 15.0987 16V9.06691C15.0987 8.56883 15.5022 8.16505 16 8.16505ZM29.1121 16.4788C29.6071 16.5315 29.9657 16.9758 29.913 17.4711C29.456 21.7664 27.0226 25.7955 22.9947 28.1223C16.5272 31.8585 8.31753 29.8403 4.28737 23.6554L3.7722 25.5791C3.64336 26.0602 3.14912 26.3457 2.66828 26.2168C2.18745 26.0879 1.9021 25.5934 2.03094 25.1123L3.15815 20.9031C3.28699 20.4219 3.78123 20.1364 4.26207 20.2653L8.46888 21.3932C8.94972 21.5221 9.23507 22.0166 9.10623 22.4977C8.97739 22.9789 8.48315 23.2644 8.00231 23.1355L5.69996 22.5182C9.17478 28.0238 16.4071 29.8451 22.0934 26.5603C25.6012 24.5339 27.7218 21.0268 28.1204 17.2801C28.1731 16.7849 28.6171 16.4261 29.1121 16.4788Z"/>
</svg>
