<svg width="13.5" height="13.5" viewBox="0 0 18 19" fill="none" xmlns="http://www.w3.org/2000/svg">
<path d="M6.74299 16.2879L6.48244 15.5847L6.74299 16.2879ZM2.53126 17.0549L2.1711 17.7127H2.1711L2.53126 17.0549ZM1.1258 13.2127L0.385295 13.3316L1.1258 13.2127ZM1.63488 10.6506L2.27548 11.0406L1.63488 10.6506ZM1.02836 11.8688L0.292739 11.7226H0.292739L1.02836 11.8688ZM8.82839 14.5888L9.46899 14.9789L8.82839 14.5888ZM8.01911 15.696L8.49285 16.2774L8.01911 15.696ZM5.57877 4.17311L4.93817 3.78307L5.57877 4.17311ZM17 18.25C17.4142 18.25 17.75 17.9142 17.75 17.5C17.75 17.0858 17.4142 16.75 17 16.75V18.25ZM10.7702 16.75C10.356 16.75 10.0202 17.0858 10.0202 17.5C10.0202 17.9142 10.356 18.25 10.7702 18.25V16.75ZM12.1317 7.72131L8.18778 14.1988L9.46899 14.9789L13.4129 8.50138L12.1317 7.72131ZM2.27548 11.0406L6.21937 4.56314L4.93817 3.78307L0.994275 10.2606L2.27548 11.0406ZM6.48244 15.5847C5.34576 16.0058 4.5659 16.2929 3.96218 16.4266C3.37567 16.5566 3.09402 16.5079 2.89142 16.397L2.1711 17.7127C2.83284 18.075 3.54126 18.0563 4.28663 17.8911C5.0148 17.7298 5.90863 17.3969 7.00354 16.9912L6.48244 15.5847ZM0.385295 13.3316C0.561785 14.4305 0.705746 15.3395 0.925235 16.0268C1.15275 16.7391 1.5012 17.346 2.1711 17.7127L2.89142 16.397C2.69697 16.2905 2.52307 16.0993 2.35412 15.5704C2.17716 15.0163 2.05056 14.2409 1.86631 13.0938L0.385295 13.3316ZM0.994275 10.2606C0.661886 10.8065 0.390155 11.2323 0.292739 11.7226L1.76398 12.0149C1.79752 11.8461 1.88648 11.6795 2.27548 11.0406L0.994275 10.2606ZM1.86631 13.0938C1.74912 12.3641 1.73081 12.1819 1.76398 12.0149L0.292739 11.7226C0.194947 12.2148 0.285253 12.7088 0.385295 13.3316L1.86631 13.0938ZM8.18778 14.1988C7.80105 14.834 7.69096 14.9959 7.54538 15.1146L8.49285 16.2774C8.88373 15.959 9.13434 15.5285 9.46899 14.9789L8.18778 14.1988ZM7.00354 16.9912C7.62763 16.76 8.10561 16.5929 8.49285 16.2774L7.54538 15.1146C7.39615 15.2361 7.2022 15.318 6.48244 15.5847L7.00354 16.9912ZM10.892 3.38947C11.7581 3.86366 12.3419 4.18504 12.7445 4.47963C13.1325 4.76358 13.2498 4.95138 13.2963 5.11578L14.7398 4.70789C14.5636 4.08444 14.1457 3.64626 13.6303 3.26912C13.1295 2.90262 12.4417 2.52781 11.6123 2.07375L10.892 3.38947ZM13.4129 8.50138C13.8909 7.71636 14.2914 7.06169 14.5339 6.50237C14.7852 5.92253 14.9171 5.3355 14.7398 4.70789L13.2963 5.11578C13.3416 5.27601 13.3401 5.48485 13.1576 5.90585C12.9662 6.34738 12.6326 6.89855 12.1317 7.72131L13.4129 8.50138ZM11.6123 2.07375C10.7823 1.61938 10.0968 1.2424 9.51314 1.01491C8.90978 0.779767 8.31972 0.664268 7.69329 0.823433L8.06267 2.27724C8.26709 2.2253 8.51632 2.23632 8.96844 2.41252C9.44022 2.59638 10.0264 2.91559 10.892 3.38947L11.6123 2.07375ZM6.21937 4.56314C6.71995 3.74099 7.05698 3.19062 7.36561 2.81137C7.65846 2.45153 7.86163 2.32832 8.06267 2.27724L7.69329 0.823433C7.06349 0.983454 6.60651 1.36774 6.20219 1.86456C5.81366 2.34198 5.4165 2.99745 4.93817 3.78307L6.21937 4.56314ZM13.1324 7.45348L5.93893 3.51524L5.21861 4.83097L12.4121 8.76921L13.1324 7.45348ZM17 16.75H10.7702V18.25H17V16.75Z"/>
</svg>
