<svg width="20" height="21" viewBox="0 0 20 21" fill="none" stroke-width="2" xmlns="http://www.w3.org/2000/svg">
<path d="M1 4.47246C1 2.55467 2.55467 1 4.47246 1H15.5842C17.4707 1 19 2.52929 19 4.41577C19 5.42052 18.5576 6.37431 17.7906 7.02332L14.2703 10.0021C13.1475 10.9521 12.5 12.3482 12.5 13.819V15.5996C12.5 16.4795 12.079 17.3062 11.3675 17.8237L9.42621 19.2355C8.41646 19.9698 7 19.2485 7 18V13.6995C7 12.298 6.41177 10.9608 5.37862 10.0137L2.12603 7.0322C1.40852 6.37448 1 5.44581 1 4.47246Z" />
</svg>
