<svg width="32" height="32" viewBox="0 0 32 32" fill="none" xmlns="http://www.w3.org/2000/svg">
<g clip-path="url(#clip0_2625_18295)">
<path fill-rule="evenodd" clip-rule="evenodd" d="M23.6782 8.33546L23.6717 8.3289C22.3402 6.99739 22.0948 5.0468 22.5169 3.18026C21.8629 2.84384 21.1791 2.55361 20.4702 2.31786C19.4566 3.92827 17.9324 5.1198 16.0008 5.1198C14.0586 5.1198 12.5584 3.91569 11.5402 2.31492C10.8247 2.55234 10.1347 2.84527 9.47504 3.1852C9.88039 5.03464 9.66829 6.99049 8.32988 8.3289C6.99836 9.66042 5.04777 9.90577 3.18123 9.48365C2.84481 10.1377 2.55458 10.8215 2.31884 11.5304C3.92925 12.5439 5.12078 14.0682 5.12078 15.9998C5.12078 17.9405 3.91847 19.44 2.31951 20.4581C2.55742 21.1692 2.85007 21.8645 3.18803 22.5251C5.03693 22.1203 6.99192 22.3327 8.32988 23.6707C9.66139 25.0022 9.90675 26.9528 9.48463 28.8193C10.1387 29.1558 10.8224 29.446 11.5313 29.6817C12.5449 28.0713 14.0692 26.8798 16.0008 26.8798C17.9415 26.8798 19.4409 28.0821 20.4591 29.6811C21.1702 29.4432 21.8655 29.1505 22.5261 28.8126C22.1213 26.9637 22.3337 25.0087 23.6717 23.6707C25.0032 22.3392 26.9538 22.0938 28.8203 22.516C29.1584 21.8587 29.4499 21.1714 29.6862 20.4587C28.0817 19.4318 26.8808 17.9122 26.8808 15.9998C26.8808 14.0889 28.0799 12.5701 29.6826 11.5432C29.4447 10.8317 29.1519 10.136 28.8138 9.47498C26.9681 9.88032 25.0439 9.66213 23.6849 8.34192L23.6782 8.33546ZM29.4408 7.9678C30.2088 9.2478 30.8168 10.6878 31.2008 12.1598C29.3448 13.0558 28.1608 14.4318 28.1608 15.9998C28.1608 17.5678 29.3448 18.9438 31.2008 19.8398C30.8168 21.3438 30.2088 22.7518 29.4408 24.0318C27.5208 23.3278 25.6648 23.4878 24.5768 24.5758C23.4888 25.6638 23.3608 27.5198 24.0328 29.4398C22.7528 30.2078 21.3128 30.8158 19.8408 31.1998C18.9448 29.3438 17.6008 28.1598 16.0008 28.1598C14.4008 28.1598 13.0248 29.3438 12.1608 31.1998C10.6568 30.8158 9.24878 30.2078 7.96878 29.4398C8.67278 27.5198 8.51278 25.6638 7.42478 24.5758C6.33678 23.4878 4.48078 23.3598 2.56078 24.0318C1.79278 22.7518 1.18478 21.3118 0.800781 19.8398C2.65678 18.9438 3.84078 17.5998 3.84078 15.9998C3.84078 14.3998 2.65678 13.0238 0.800781 12.1598C1.18478 10.6558 1.79278 9.2478 2.56078 7.9678C4.48078 8.6718 6.33678 8.5118 7.42478 7.4238C8.51278 6.3358 8.64078 4.4798 7.96878 2.5598C9.24878 1.7918 10.6568 1.1838 12.1608 0.799805C13.0568 2.6558 14.4008 3.8398 16.0008 3.8398C17.6008 3.8398 18.9768 2.6558 19.8408 0.799805C21.3448 1.1838 22.7528 1.7918 24.0328 2.5598C23.3288 4.4798 23.4888 6.3358 24.5768 7.4238C25.6968 8.5118 27.5208 8.6398 29.4408 7.9678ZM24.9288 15.9998C24.9288 20.9022 20.9282 24.8638 16.0648 24.8638C11.2084 24.8638 7.16878 20.9092 7.16878 15.9998C7.16878 11.1009 11.1339 7.1358 16.0328 7.1358C20.9247 7.1358 24.9288 11.0939 24.9288 15.9998ZM16.0648 23.5838C20.2248 23.5838 23.6488 20.1918 23.6488 15.9998C23.6488 11.8078 20.2248 8.4158 16.0328 8.4158C11.8408 8.4158 8.44878 11.8078 8.44878 15.9998C8.44878 20.1918 11.9048 23.5838 16.0648 23.5838Z"/>
</g>
<defs>
<clipPath id="clip0_2625_18295">
<rect width="32" height="32" fill="white"/>
</clipPath>
</defs>
</svg>
