<svg width="12" height="15" viewBox="0 0 13 16" fill="none" xmlns="http://www.w3.org/2000/svg">
<path fill-rule="evenodd" clip-rule="evenodd" d="M8.2118 14.2443C9.97115 12.0008 12.1873 8.74128 12.1873 6.5573C12.1873 2.9358 9.45908 0 6.09365 0C2.72822 0 0 2.9358 0 6.5573C0 8.74128 2.21615 12.0008 3.9755 14.2443C4.89339 15.4148 5.35233 16 6.09365 16C6.83497 16 7.29391 15.4148 8.2118 14.2443ZM6.09365 9.14047C4.83161 9.14047 3.80853 8.11739 3.80853 6.85536C3.80853 5.59332 4.83161 4.57024 6.09365 4.57024C7.35569 4.57024 8.37877 5.59332 8.37877 6.85536C8.37877 8.11739 7.35569 9.14047 6.09365 9.14047Z" />
</svg>
