<svg width="53" height="50" viewBox="0 0 53 50" fill="none" xmlns="http://www.w3.org/2000/svg">
<path d="M26.9021 5.50096C29.323 3.81978 31.9457 2.74383 34.8373 2.34034C44.6554 0.995402 51.5146 7.65286 52.3888 15.6553C52.9268 20.3626 51.5146 24.5319 48.2867 28.096C48.1522 28.2305 48.0177 28.4322 48.0177 28.6339C47.4797 31.3911 46.2693 32.467 43.5122 32.8033C43.4449 32.8033 43.4449 32.8705 43.3777 32.8705C43.1759 35.7621 41.293 37.4433 38.6704 37.5106C38.6704 38.9227 38.1996 40.2004 36.9892 41.1419C35.846 42.0834 34.5011 42.3523 33.0216 42.0161C32.8199 43.6973 31.7439 44.706 30.668 45.7147C29.9955 46.3199 29.3903 46.9924 28.7178 47.6649C27.3056 49.077 25.6917 49.4805 23.876 48.8081C22.0604 48.1356 21.1189 46.7234 21.0517 44.706C21.0517 44.6387 21.0517 44.5715 20.9844 44.437C19.7067 44.5042 18.5635 44.0335 17.6221 43.1593C16.6806 42.2851 16.2771 41.1419 16.2771 39.797C14.9994 39.7297 13.8562 39.3935 12.9148 38.452C11.9733 37.5778 11.6371 36.4346 11.5698 35.1569C11.3681 35.1569 11.1663 35.0897 10.9646 35.0897C8.40921 34.7534 6.86252 32.9378 6.92977 30.3824C6.92977 30.1134 6.79528 29.7771 6.59354 29.6427C3.90365 27.1545 1.88624 24.2629 1.01203 20.6988C-0.265664 15.5208 0.339559 10.679 3.76916 6.50966C9.41791 -0.416786 19.9085 -0.887515 26.5659 5.29921C26.7677 5.36646 26.8349 5.43371 26.9021 5.50096ZM28.4488 37.0398C28.5833 37.0398 28.6506 37.1071 28.7178 37.1071C30.1973 37.1743 31.3405 37.7795 32.2147 38.8555C32.4837 39.1917 32.8199 39.4607 33.2234 39.6625C34.2321 40.2677 35.5098 39.8642 36.115 38.8555C36.653 37.914 36.5185 36.9053 35.577 35.9639C32.5509 32.9378 29.592 29.9789 26.5659 26.9528C26.4314 26.8183 26.2297 26.6165 26.0952 26.482C25.6917 26.0113 25.7589 25.4061 26.1624 25.0026C26.5659 24.5991 27.1711 24.5319 27.6419 24.9354C27.8436 25.0699 27.9781 25.2716 28.1126 25.4061C31.1387 28.4322 34.1648 31.4583 37.1909 34.4844C37.7962 35.0897 38.4686 35.4259 39.3428 35.2242C40.2171 35.0224 40.755 34.4844 40.9568 33.6102C41.2258 32.736 40.8895 32.0635 40.2843 31.4583C37.1237 28.365 34.0303 25.2043 30.8697 22.111C30.3317 21.573 30.2645 20.9005 30.7352 20.4298C31.206 19.9591 31.8784 20.0263 32.4164 20.5643C34.2321 22.38 36.0477 24.1284 37.8634 25.9441C39.2084 27.289 40.5533 28.6339 41.8982 29.9789C43.0414 31.0548 44.6554 30.8531 45.3951 29.5754C45.9331 28.7012 45.7313 27.6925 44.9244 26.8183C40.6205 22.3127 36.2495 17.9417 31.8784 13.5706C31.8112 13.5034 31.6767 13.3689 31.4749 13.2344C31.3405 13.3689 31.2732 13.5034 31.1387 13.6378C29.5248 15.2518 27.9781 16.8657 26.2969 18.4124C22.8673 21.573 17.6221 21.035 14.6632 17.3364C18.16 13.9068 21.6569 10.41 25.1537 6.98039C19.505 1.26439 9.48516 2.07136 4.97961 8.66157C2.15523 12.7636 2.08798 17.2019 3.76916 21.7075C4.64337 24.0611 6.12281 26.0786 8.07297 27.7597C9.21617 26.6165 10.3594 25.4733 11.5026 24.3301C12.713 23.1197 14.1252 22.7835 15.7391 23.2542C17.3531 23.7249 18.429 24.8009 18.8325 26.4148C18.967 26.8183 18.967 27.289 19.0342 27.6925C20.3119 27.6925 21.4551 28.096 22.3293 29.0374C23.2708 29.9789 23.607 31.1221 23.6743 32.3325C26.9021 32.467 28.5161 34.6862 28.4488 37.0398ZM47.3453 25.8096C47.3453 25.8096 47.4125 25.6751 47.4797 25.6751C47.6142 25.4733 47.7487 25.3388 47.8832 25.1371C49.8334 22.2455 50.7076 19.0849 50.1696 15.588C49.4972 11.2842 47.3452 7.92185 43.4449 5.90444C38.4686 3.2818 31.6767 4.15601 27.3729 8.12359C24.145 11.0825 21.1861 14.2431 18.0255 17.3364C18.0255 17.3364 18.0255 17.4037 18.0255 17.4709C20.0429 18.9504 23.0691 18.6141 25.0192 16.7312C26.8349 14.9828 28.5833 13.1671 30.399 11.3514C31.3405 10.41 31.8112 10.41 32.7526 11.3514C34.9718 13.5706 37.2582 15.857 39.4773 18.0762C42.0327 20.5643 44.6554 23.1869 47.3453 25.8096ZM19.1015 29.9116C18.8325 30.0461 18.3618 30.1134 18.0255 30.3824C16.7478 31.5256 15.5374 32.736 14.3942 34.0137C13.6545 34.8879 13.789 36.0984 14.6632 36.9053C15.4701 37.7123 16.7478 37.7123 17.5548 36.9726C18.698 35.8966 19.8412 34.7534 20.9172 33.6102C21.5896 32.9378 21.7241 32.1308 21.3206 31.2566C20.9172 30.4496 20.2447 30.0461 19.1015 29.9116ZM26.3642 36.9053C26.2969 36.9053 26.2297 36.8381 26.2297 36.8381C26.2297 35.8966 25.7589 35.2242 24.8847 34.8879C24.0105 34.4844 23.2036 34.6189 22.5311 35.2914C21.4551 36.3001 20.3792 37.3761 19.3705 38.452C18.429 39.3935 18.429 40.6712 19.236 41.5454C20.1774 42.4868 21.4551 42.4868 22.3966 41.5454C23.4725 40.5367 24.4813 39.528 25.49 38.452C25.8262 37.9813 26.0279 37.3761 26.3642 36.9053ZM23.1363 44.5715C23.2708 45.513 23.8088 46.3199 24.6157 46.6562C25.49 46.9924 26.2969 46.8579 26.9694 46.1854C28.0453 45.1095 29.1885 44.0335 30.2645 42.8903C31.1387 42.0161 31.0715 40.7384 30.2645 39.9314C29.3903 39.0572 28.1126 38.99 27.2384 39.8642C26.0952 40.9402 25.0192 42.0161 23.9433 43.1593C23.607 43.5628 23.4053 44.1008 23.1363 44.5715ZM9.14892 30.5841C9.28342 31.5928 9.75415 32.2653 10.5611 32.6688C11.4353 33.0723 12.2423 32.9378 12.9148 32.2653C14.058 31.1893 15.1339 30.0461 16.2099 28.9702C17.0841 28.096 17.0168 26.8183 16.2099 26.0113C15.3357 25.1371 14.058 25.0699 13.1837 25.9441C12.1078 27.02 10.9646 28.096 9.95589 29.2392C9.55241 29.5754 9.35067 30.1134 9.14892 30.5841Z" fill="white"/>
</svg>
