<svg width="14" height="15" viewBox="0 0 14 15" fill="none" xmlns="http://www.w3.org/2000/svg">
<path d="M7.00012 3C7.28345 3 7.52112 2.904 7.71312 2.712C7.90512 2.52 8.00078 2.28267 8.00012 2C8.00012 1.71667 7.90412 1.47933 7.71212 1.288C7.52012 1.09667 7.28278 1.00067 7.00012 1C6.71678 1 6.47945 1.096 6.28812 1.288C6.09678 1.48 6.00078 1.71733 6.00012 2C6.00012 2.28333 6.09612 2.521 6.28812 2.713C6.48012 2.905 6.71745 3.00067 7.00012 3ZM8.71012 3H11.0561C11.4661 3 11.8194 3.13133 12.1161 3.394C12.4121 3.65667 12.5888 3.99133 12.6461 4.398L13.8981 13.168C13.9688 13.652 13.8434 14.0787 13.5221 14.448C13.2008 14.816 12.7894 15 12.2881 15H1.71212C1.21078 15 0.79945 14.8157 0.478117 14.447C0.156783 14.0783 0.03145 13.6517 0.102117 13.167L1.35412 4.398C1.41145 3.99133 1.58812 3.65667 1.88412 3.394C2.18145 3.13133 2.53512 3 2.94512 3H5.29112C5.20312 2.85867 5.13278 2.70267 5.08012 2.532C5.02678 2.36067 5.00012 2.18333 5.00012 2C5.00012 1.436 5.19245 0.961667 5.57712 0.577C5.96178 0.192333 6.43612 0 7.00012 0C7.56412 0 8.03845 0.192333 8.42312 0.577C8.80778 0.961667 9.00012 1.436 9.00012 2C9.00012 2.18333 8.97378 2.36067 8.92112 2.532C8.86845 2.70267 8.79812 2.85867 8.71012 3Z" fill="black"/>
</svg>
