<svg viewBox="0 0 161 26" xmlns="http://www.w3.org/2000/svg">
<g clip-path="url(#clip0_885_3578)">
<path d="M56.53 5.54626C51.2599 5.54626 47.0068 9.80552 47.0068 15.0833C47.0068 20.3611 51.2599 24.574 56.53 24.574C58.3792 24.574 60.0897 24.0185 61.569 23.1389V24.574H66.0533V15.0833C66.0071 9.80552 61.754 5.54626 56.53 5.54626ZM56.53 20.0833C53.7563 20.0833 51.491 17.8148 51.491 15.037C51.491 12.2592 53.7563 9.99071 56.53 9.99071C59.3038 9.99071 61.5228 12.3055 61.5228 15.0833C61.5228 17.8611 59.3038 20.0833 56.53 20.0833Z" />
<path d="M134.981 5.54626C129.711 5.54626 125.458 9.80552 125.458 15.0833C125.458 20.3611 129.757 24.574 134.981 24.574C136.831 24.574 138.541 24.0185 140.02 23.1389V24.574H144.505V15.0833C144.505 9.80552 140.251 5.54626 134.981 5.54626ZM134.981 20.0833C132.208 20.0833 129.942 17.8148 129.942 15.037C129.942 12.2592 132.208 9.99071 134.981 9.99071C137.755 9.99071 140.02 12.2592 140.02 15.037C140.02 17.8611 137.755 20.0833 134.981 20.0833Z" />
<path d="M117.322 5.5463C112.052 5.5463 107.798 9.80556 107.798 15.0833C107.798 20.3611 112.052 24.5741 117.322 24.5741H122.361V20.0833H117.322C114.548 20.0833 112.283 17.8148 112.283 15.037C112.283 12.2593 114.548 9.99074 117.322 9.99074H122.361V5.5L117.322 5.5463Z" />
<path d="M158.004 5.54626C152.733 5.54626 148.48 9.80552 148.48 15.0833V24.574H152.965V15.0833C152.965 12.3055 155.23 10.037 158.004 10.037H160.5V5.54626H158.004Z" />
<path d="M79.506 5.54626C77.6569 5.54626 75.9464 6.10182 74.467 6.98145V5.54626H69.9828V24.574H74.467V15.037C74.467 12.2592 76.7323 10.037 79.506 10.037C82.2798 10.037 84.5451 12.3055 84.5451 15.0833V24.574H89.0293V15.0833C88.9831 9.80552 84.73 5.54626 79.506 5.54626Z" />
<path d="M97.0732 15.0833V10.037H102.112V5.54628H97.0732V1.05554H92.589V5.54628V10.037V15.0833C92.589 20.2685 96.7496 24.4815 101.927 24.5741H104.424V20.0833H102.112C99.2923 20.0833 97.0732 17.8611 97.0732 15.0833Z" />
<path d="M28.6075 0.5C25.6488 0.5 22.9213 1.51852 20.7947 3.27778C18.6682 1.51852 15.9406 0.5 12.9819 0.5C6.09376 0.5 0.5 6.10185 0.5 13C0.5 19.8981 6.09376 25.5 12.9819 25.5C15.9406 25.5 18.6682 24.4815 20.7947 22.7222C22.9213 24.4352 25.6488 25.5 28.6075 25.5C35.4957 25.5 41.0894 19.8981 41.0894 13C41.0894 6.10185 35.4957 0.5 28.6075 0.5ZM21.4882 13C21.4882 15.3611 20.5173 17.4907 18.9918 19.0185C17.5124 17.6296 15.9869 16.287 16.819 14.1111C17.5587 12.1204 19.4078 11.8889 21.3957 11.6574C21.4419 12.0741 21.4882 12.537 21.4882 13ZM22.1354 4.52778C22.2278 4.57407 22.2741 4.66667 22.3665 4.75926C22.2741 4.66667 22.2278 4.57407 22.1354 4.52778ZM22.8288 5.36111C22.875 5.40741 22.9213 5.5 22.9675 5.5463C22.9213 5.4537 22.875 5.40741 22.8288 5.36111ZM22.9675 20.5C22.9213 20.5463 22.875 20.6389 22.8288 20.6852C22.875 20.6389 22.9213 20.5463 22.9675 20.5ZM22.3665 21.287C22.3203 21.3796 22.2278 21.4259 22.1816 21.5185C22.2278 21.4259 22.2741 21.3796 22.3665 21.287ZM21.6268 3.97222C21.5344 3.87963 21.4882 3.83333 21.3957 3.74074C21.4419 3.83333 21.5344 3.87963 21.6268 3.97222ZM20.5636 9.15741C18.8069 10.1759 17.1426 11.1481 15.2934 9.75926C13.4905 8.41667 13.9065 6.51852 14.3226 4.62037C17.0501 5.03704 19.3154 6.7963 20.5636 9.15741ZM13.0744 10.6389C14.3226 10.6389 15.4783 11.7963 15.4321 13C15.3859 14.25 14.3226 15.3148 13.0282 15.3148C11.6875 15.3148 10.7167 14.2963 10.7167 12.9537C10.6705 11.6574 11.6875 10.6389 13.0744 10.6389ZM11.7337 4.62037C11.8262 5.5463 11.9649 6.33333 11.9649 7.12037C11.9649 8.74074 11.179 9.99074 9.88457 10.2222C9.00621 10.3611 8.08162 10.2222 7.20327 9.99074C6.60228 9.85185 6.04753 9.48148 5.40032 9.15741C6.64851 6.75 8.95998 5.03704 11.7337 4.62037ZM4.61442 11.6574C5.2154 11.75 5.77015 11.7963 6.27868 11.9352C9.51474 12.6296 10.3931 15.2222 8.26654 17.7685C7.89671 18.2315 7.48064 18.6019 6.97212 19.1111C5.40032 17.5833 4.4295 15.4537 4.4295 13.0463C4.52196 12.537 4.56819 12.0741 4.61442 11.6574ZM9.19113 20.5926C9.97703 18.7407 10.7629 17.0278 12.9357 16.9352C15.201 16.8889 16.0793 18.6481 16.9114 20.5463C15.7557 21.1481 14.4151 21.5185 13.0282 21.5185C11.6413 21.5185 10.3469 21.1944 9.19113 20.5926ZM21.3957 22.2593C21.4882 22.1667 21.5344 22.1204 21.6268 22.0278C21.5344 22.1204 21.4419 22.1667 21.3957 22.2593ZM28.5613 21.5185C26.6658 21.5185 24.8629 20.8704 23.476 19.8056C24.7242 17.8148 25.4639 15.5 25.4639 13C25.4639 10.5 24.7242 8.18518 23.476 6.24074C24.9091 5.17593 26.6658 4.52778 28.5613 4.52778C33.2304 4.52778 37.0675 8.32407 37.0675 13.0463C37.0675 17.7685 33.2767 21.5185 28.5613 21.5185Z" />
</g>
<defs>
<clipPath id="clip0_885_3578">
<rect width="160" height="25" transform="translate(0.5 0.5)"/>
</clipPath>
</defs>
</svg>
