<svg width="18" height="16" viewBox="0 0 18 16" xmlns="http://www.w3.org/2000/svg">
<path d="M2.67321 8.75095L8.38092 14.2199C8.52786 14.3608 8.61041 14.5518 8.61041 14.7509C8.61041 14.9501 8.52786 15.1411 8.38092 15.2819C8.23398 15.4228 8.03468 15.5019 7.82688 15.5019C7.61907 15.5019 7.41977 15.4228 7.27283 15.2819L0.229903 8.53195C0.157027 8.46228 0.0992079 8.37951 0.0597574 8.2884C0.0203069 8.19728 0 8.0996 0 8.00095C0 7.9023 0.0203069 7.80462 0.0597574 7.7135C0.0992079 7.62238 0.157027 7.53962 0.229903 7.46995L7.27283 0.719947C7.41977 0.579117 7.61907 0.5 7.82688 0.5C8.03468 0.5 8.23398 0.579117 8.38092 0.719947C8.52786 0.860777 8.61041 1.05178 8.61041 1.25095C8.61041 1.45011 8.52786 1.64112 8.38092 1.78195L2.67321 7.25095H17.2175C17.425 7.25095 17.624 7.32997 17.7708 7.47062C17.9176 7.61127 18 7.80204 18 8.00095C18 8.19986 17.9176 8.39063 17.7708 8.53128C17.624 8.67193 17.425 8.75095 17.2175 8.75095H2.67321Z"/>
</svg>
