<svg width="19" height="18" viewBox="0 0 19 18" fill="none" stroke-width="1.5" stroke-linecap="round" stroke-linejoin="round" xmlns="http://www.w3.org/2000/svg">
<path d="M9.5 9L6.29533 6.32945C5.8192 5.93266 5.58113 5.73427 5.40998 5.49108C5.25833 5.2756 5.14572 5.03516 5.07726 4.78071C5 4.49354 5 4.18364 5 3.56385V1.5M9.5 9L12.7047 6.32945C13.1808 5.93267 13.4189 5.73427 13.59 5.49108C13.7417 5.2756 13.8543 5.03516 13.9227 4.78071C14 4.49354 14 4.18364 14 3.56385V1.5M9.5 9L6.29534 11.6706C5.8192 12.0673 5.58113 12.2657 5.40998 12.5089C5.25833 12.7244 5.14572 12.9648 5.07726 13.2193C5 13.5065 5 13.8164 5 14.4361V16.5M9.5 9L12.7047 11.6706C13.1808 12.0673 13.4189 12.2657 13.59 12.5089C13.7417 12.7244 13.8543 12.9648 13.9227 13.2193C14 13.5065 14 13.8164 14 14.4361V16.5M3.5 1.5H15.5M3.5 16.5H15.5" />
</svg>
