<svg width="30" height="30" viewBox="0 0 44 44" fill="current" xmlns="http://www.w3.org/2000/svg">
<path d="M16.6673 22C16.6673 19.0546 19.0543 16.6662 21.9998 16.6662C24.9452 16.6662 27.3335 19.0546 27.3335 22C27.3335 24.9454 24.9452 27.3338 21.9998 27.3338C19.0543 27.3338 16.6673 24.9454 16.6673 22ZM13.7839 22C13.7839 26.5376 17.4622 30.2158 21.9998 30.2158C26.5374 30.2158 30.2156 26.5376 30.2156 22C30.2156 17.4624 26.5374 13.7842 21.9998 13.7842C17.4622 13.7842 13.7839 17.4624 13.7839 22ZM28.6208 13.4584C28.6207 13.8382 28.7331 14.2094 28.944 14.5253C29.1548 14.8411 29.4546 15.0873 29.8054 15.2328C30.1561 15.3782 30.5422 15.4164 30.9146 15.3425C31.2871 15.2685 31.6293 15.0858 31.8979 14.8174C32.1665 14.549 32.3495 14.2069 32.4238 13.8345C32.498 13.4621 32.4601 13.076 32.315 12.7252C32.1698 12.3743 31.9238 12.0743 31.6081 11.8632C31.2925 11.6521 30.9213 11.5394 30.5416 11.5392H30.5408C30.0318 11.5394 29.5437 11.7417 29.1837 12.1015C28.8237 12.4614 28.6213 12.9494 28.6208 13.4584ZM15.5358 35.0236C13.9758 34.9526 13.1279 34.6927 12.5645 34.4732C11.8175 34.1824 11.2845 33.836 10.7241 33.2764C10.1637 32.7168 9.81684 32.1843 9.52731 31.4373C9.30766 30.8741 9.04782 30.026 8.97691 28.466C8.89934 26.7795 8.88385 26.2729 8.88385 22.0001C8.88385 17.7274 8.90062 17.2221 8.97691 15.5342C9.04795 13.9743 9.30971 13.1278 9.52731 12.5629C9.81812 11.8159 10.1645 11.2829 10.7241 10.7226C11.2837 10.1622 11.8162 9.8153 12.5645 9.52576C13.1277 9.30611 13.9758 9.04627 15.5358 8.97536C17.2223 8.89779 17.7289 8.8823 21.9998 8.8823C26.2706 8.8823 26.7777 8.89907 28.4657 8.97536C30.0256 9.0464 30.8721 9.30816 31.4369 9.52576C32.184 9.8153 32.7169 10.1629 33.2773 10.7226C33.8377 11.2822 34.1833 11.8159 34.4741 12.5629C34.6938 13.1261 34.9536 13.9743 35.0245 15.5342C35.1021 17.2221 35.1176 17.7274 35.1176 22.0001C35.1176 26.2729 35.1021 26.7781 35.0245 28.466C34.9535 30.026 34.6924 30.8739 34.4741 31.4373C34.1833 32.1843 33.8369 32.7173 33.2773 33.2764C32.7177 33.8355 32.184 34.1824 31.4369 34.4732C30.8737 34.6929 30.0256 34.9527 28.4657 35.0236C26.7792 35.1012 26.2725 35.1167 21.9998 35.1167C17.727 35.1167 17.2218 35.1012 15.5358 35.0236ZM15.4033 6.0969C13.7 6.17446 12.5361 6.44454 11.5196 6.84006C10.467 7.24851 9.57582 7.79648 8.68532 8.68557C7.79483 9.57466 7.24827 10.4672 6.83982 11.5199C6.4443 12.537 6.17422 13.7002 6.09665 15.4035C6.0178 17.1095 5.99976 17.6549 5.99976 22C5.99976 26.3451 6.0178 26.8905 6.09665 28.5965C6.17422 30.2999 6.4443 31.463 6.83982 32.4801C7.24827 33.5322 7.79496 34.4257 8.68532 35.3144C9.57569 36.2031 10.467 36.7503 11.5196 37.1599C12.538 37.5555 13.7 37.8255 15.4033 37.9031C17.1102 37.9807 17.6547 38 21.9998 38C26.3448 38 26.8903 37.982 28.5962 37.9031C30.2997 37.8255 31.4628 37.5555 32.4799 37.1599C33.5319 36.7503 34.4237 36.2035 35.3142 35.3144C36.2047 34.4253 36.7501 33.5322 37.1597 32.4801C37.5552 31.463 37.8266 30.2998 37.9029 28.5965C37.9804 26.8892 37.9985 26.3451 37.9985 22C37.9985 17.6549 37.9804 17.1095 37.9029 15.4035C37.8253 13.7001 37.5552 12.5363 37.1597 11.5199C36.7501 10.4678 36.2033 9.57606 35.3142 8.68557C34.4251 7.79507 33.5319 7.24851 32.4812 6.84006C31.4628 6.44454 30.2995 6.17318 28.5975 6.0969C26.8915 6.01933 26.3461 6 22.001 6C17.6559 6 17.1102 6.01805 15.4033 6.0969Z"/>
</svg>
