<svg width="32" height="32" viewBox="0 0 32 32" fill="none" xmlns="http://www.w3.org/2000/svg">
<path fill-rule="evenodd" clip-rule="evenodd" d="M16.0005 1.13477C15.8516 1.13494 15.7053 1.17605 15.5768 1.2539C13.0876 2.75757 10.2572 3.55062 7.37474 3.55224C6.60533 3.55224 5.8384 3.48461 5.07989 3.36869C4.96033 3.35023 4.83833 3.35864 4.72221 3.39337C4.60609 3.4281 4.49858 3.48832 4.40702 3.56992C4.31545 3.65153 4.24198 3.75259 4.19163 3.86623C4.14127 3.97987 4.11522 4.1034 4.11523 4.22839V18.4431C4.11523 22.1183 7.14339 25.0796 9.98721 27.196C12.831 29.3127 15.6596 30.6078 15.6596 30.6078C15.7669 30.657 15.8831 30.6825 16.0005 30.6825C16.118 30.6825 16.2342 30.657 16.3415 30.6078C16.3415 30.6078 19.1701 29.3127 22.0139 27.196C24.8577 25.0796 27.8859 22.1183 27.8859 18.4431V4.22839C27.8859 4.10343 27.8598 3.97993 27.8095 3.86632C27.7592 3.75271 27.6857 3.65166 27.5942 3.57006C27.5027 3.48846 27.3952 3.42824 27.2791 3.39349C27.163 3.35873 27.0411 3.35028 26.9215 3.36869C26.1615 3.48461 25.3948 3.54902 24.6267 3.55224C21.7442 3.55191 18.9138 2.75757 16.4243 1.2539C16.2958 1.17605 16.1495 1.13494 16.0005 1.13477ZM16.0005 3.00164C18.6429 4.49984 21.61 5.28968 24.6295 5.28968C25.1538 5.28646 25.6779 5.25749 26.1997 5.20917V18.4431C26.1997 21.068 23.7053 23.7916 21.0268 25.7854C18.8986 27.3696 16.784 28.4656 15.9953 28.8542C15.2065 28.4656 13.092 27.3696 10.9637 25.7854C8.28521 23.7916 5.79076 21.068 5.79076 18.4431V5.20885C6.31263 5.26035 6.83637 5.28614 7.36011 5.28935C10.3789 5.28807 13.346 4.49952 15.9884 3.00132L16.0005 3.00164ZM21.4895 11.0204C21.3792 11.024 21.2706 11.05 21.17 11.0969C21.0694 11.1439 20.9788 11.2109 20.9032 11.2941L14.9855 17.8066L11.7892 14.1823C11.6392 14.0119 11.4299 13.91 11.2073 13.8991C10.9847 13.8883 10.767 13.9693 10.6022 14.1243C10.4374 14.2794 10.3389 14.4958 10.3284 14.726C10.3179 14.9562 10.3962 15.1812 10.5461 15.3517L14.354 19.6699C14.4327 19.7578 14.5281 19.8279 14.6342 19.8759C14.7404 19.9239 14.855 19.9486 14.9708 19.9486C15.0867 19.9486 15.2012 19.9239 15.3074 19.8759C15.4135 19.8279 15.509 19.7578 15.5876 19.6699L22.1269 12.4735C22.2025 12.3903 22.2615 12.2925 22.3005 12.1857C22.3396 12.0789 22.3579 11.9652 22.3544 11.8511C22.3509 11.737 22.3258 11.6247 22.2803 11.5207C22.2349 11.4167 22.17 11.3229 22.0896 11.2448C21.9271 11.0871 21.7107 11.0025 21.488 11.0097L21.4895 11.0204Z"/>
</svg>
