<svg width="30" height="30" viewBox="0 0 44 44" fill="current" xmlns="http://www.w3.org/2000/svg">
<path d="M13.8101 36.9993V16.7576H7.37907V36.9993H13.8108H13.8101ZM10.5959 13.9944C12.8381 13.9944 14.234 12.4401 14.234 10.4977C14.192 8.51094 12.8381 7 10.6386 7C8.43753 7 7 8.51094 7 10.4975C7 12.44 8.3954 13.9943 10.5538 13.9943H10.5954L10.5959 13.9944ZM17.3698 36.9993H23.8003V25.6967C23.8003 25.0925 23.8423 24.4867 24.0122 24.0552C24.4769 22.846 25.535 21.5943 27.312 21.5943C29.6384 21.5943 30.5696 23.4503 30.5696 26.1717V36.9993H37V25.3933C37 19.1762 33.8278 16.2831 29.5968 16.2831C26.1279 16.2831 24.6044 18.3114 23.758 19.6929H23.8008V16.7583H17.3701C17.4541 18.6572 17.3696 37 17.3696 37L17.3698 36.9993Z" />
</svg>
