<svg viewBox="0 0 29 29" fill="none" xmlns="http://www.w3.org/2000/svg">
<path d="M27.9805 15.5195C27.4169 15.5195 26.9609 15.0636 26.9609 14.5C26.9609 12.8178 26.6324 11.1865 25.9811 9.64873C25.3545 8.16831 24.4476 6.82296 23.3104 5.68672C22.1755 4.54801 20.8298 3.64096 19.3484 3.01611C17.8135 2.36758 16.1822 2.03906 14.5 2.03906C13.9364 2.03906 13.4805 1.58311 13.4805 1.01953C13.4805 0.455957 13.9364 0 14.5 0C16.4569 0 18.3572 0.382324 20.1442 1.14131C21.8718 1.86914 23.4209 2.91699 24.752 4.24805C26.083 5.5791 27.128 7.13105 27.8587 8.85576C28.6148 10.6428 28.9972 12.5431 28.9972 14.5C29 15.0636 28.544 15.5195 27.9805 15.5195Z" />
</svg>

