<svg width="18" height="18" viewBox="0 0 18 18" fill="none" stroke-width="1.5" stroke-miterlimit="10" xmlns="http://www.w3.org/2000/svg">
<path d="M3.75 6.75V5.1C3.75 4.77 4.02 4.5 4.35 4.5H16.65C16.98 4.5 17.25 4.77 17.25 5.1V11.4C17.25 11.73 16.98 12 16.65 12H15" />
<path d="M14.4 6.75H2.1C1.76863 6.75 1.5 7.01863 1.5 7.35V13.65C1.5 13.9814 1.76863 14.25 2.1 14.25H14.4C14.7314 14.25 15 13.9814 15 13.65V7.35C15 7.01863 14.7314 6.75 14.4 6.75Z" />
<path d="M8.25 11.25C8.66421 11.25 9 10.9142 9 10.5C9 10.0858 8.66421 9.75 8.25 9.75C7.83579 9.75 7.5 10.0858 7.5 10.5C7.5 10.9142 7.83579 11.25 8.25 11.25Z" />
</svg>
