<svg  viewBox="0 0 60 47" fill="none" xmlns="http://www.w3.org/2000/svg">
<path fill-rule="evenodd" clip-rule="evenodd" d="M42.0569 21.9427H47.9427V14.7141C47.9427 13.9731 48.5445 13.3712 49.2855 13.3712H53.5712C56.6737 13.3712 59.1998 15.8973 59.1998 18.9998V38.2855C59.1998 41.388 56.6737 43.9141 53.5712 43.9141H49.2855C48.5445 43.9141 47.9427 43.3123 47.9427 42.5712V35.3427H42.0569V42.5712C42.0569 44.493 40.493 46.0569 38.5712 46.0569H19.9991C19.2508 46.0569 18.5063 45.8088 17.9077 45.3598L10.7649 40.0022C9.89377 39.3502 9.37123 38.3042 9.37123 37.2141V28.9141H3.48552V38.2855C3.48552 39.0265 2.88369 39.6284 2.14266 39.6284C1.40163 39.6284 0.799805 39.0265 0.799805 38.2855V16.8569C0.799805 16.1159 1.40163 15.5141 2.14266 15.5141C2.88369 15.5141 3.48552 16.1159 3.48552 16.8569V26.2284H9.37123V16.8569C9.37123 14.9352 10.9352 13.3712 12.8569 13.3712H24.3712V3.48552H14.9998C14.2588 3.48552 13.6569 2.88369 13.6569 2.14266C13.6569 1.40163 14.2588 0.799805 14.9998 0.799805H36.4284C37.1694 0.799805 37.7712 1.40163 37.7712 2.14266C37.7712 2.88369 37.1694 3.48552 36.4284 3.48552H27.0569V13.3712H38.5712C40.493 13.3712 42.0569 14.9352 42.0569 16.8569V21.9427ZM50.6284 33.9998V41.2284H53.5712C55.1938 41.2284 56.5141 39.9081 56.5141 38.2855V18.9998C56.5141 17.3773 55.1938 16.0569 53.5712 16.0569H50.6284V23.2855C50.6284 24.0265 50.0265 24.6284 49.2855 24.6284H40.7141C39.9731 24.6284 39.3712 24.0265 39.3712 23.2855V16.0569H12.0569V37.6141L19.7324 43.3712H39.3712V33.9998C39.3712 33.2588 39.9731 32.6569 40.7141 32.6569H49.2855C50.0265 32.6569 50.6284 33.2588 50.6284 33.9998Z" />
</svg>