<svg width="14" height="14" viewBox="0 0 21 21" fill="none" stroke-width="2" stroke-linecap="round" xmlns="http://www.w3.org/2000/svg">
<path d="M5.46304 1.60215L6.19064 1.42025V1.42025L5.46304 1.60215ZM6.56883 6.02533L7.29644 5.84343V5.84343L6.56883 6.02533ZM6.15242 7.19818L6.60242 7.79818L6.15242 7.19818ZM19.3979 15.537L19.216 16.2646L19.3979 15.537ZM14.9747 14.4312L14.7928 15.1588H14.7928L14.9747 14.4312ZM13.8018 14.8476L14.4018 15.2976L14.4018 15.2976L13.8018 14.8476ZM4.8588 8.1684L5.3088 8.7684L4.8588 8.1684ZM11.6223 16.5212L11.3644 17.2255L11.3644 17.2255L11.6223 16.5212ZM4.47876 9.37766L5.183 9.11969L4.47876 9.37766ZM12.8316 16.1412L13.4316 16.5912H13.4316L12.8316 16.1412ZM15.75 19.5C7.87994 19.5 1.5 13.1201 1.5 5.25H0C0 13.9485 7.05152 21 15.75 21V19.5ZM3 1.5H4.37163V0H3V1.5ZM4.73543 1.78405L5.84123 6.20723L7.29644 5.84343L6.19064 1.42025L4.73543 1.78405ZM5.84123 6.20723C5.87782 6.35361 5.82313 6.50766 5.70242 6.59818L6.60242 7.79818C7.20594 7.34555 7.47941 6.5753 7.29644 5.84343L5.84123 6.20723ZM4.37163 1.5C4.5437 1.5 4.6937 1.61711 4.73543 1.78405L6.19064 1.42025C5.98197 0.585557 5.232 0 4.37163 0V1.5ZM3 0C1.34315 0 0 1.34315 0 3H1.5C1.5 2.17157 2.17157 1.5 3 1.5V0ZM21 18V16.6284H19.5V18H21ZM19.5798 14.8094L15.1566 13.7036L14.7928 15.1588L19.216 16.2646L19.5798 14.8094ZM15.1566 13.7036C14.4247 13.5206 13.6545 13.7941 13.2018 14.3976L14.4018 15.2976C14.4923 15.1769 14.6464 15.1222 14.7928 15.1588L15.1566 13.7036ZM21 16.6284C21 15.768 20.4144 15.018 19.5798 14.8094L19.216 16.2646C19.3829 16.3063 19.5 16.4563 19.5 16.6284H21ZM19.5 18C19.5 18.8284 18.8284 19.5 18 19.5V21C19.6569 21 21 19.6569 21 18H19.5ZM5.70242 6.59818L4.4088 7.5684L5.3088 8.7684L6.60242 7.79818L5.70242 6.59818ZM11.8803 15.817C8.78051 14.6815 6.31851 12.2195 5.183 9.11969L3.77453 9.63563C5.0618 13.1497 7.85027 15.9382 11.3644 17.2255L11.8803 15.817ZM13.2018 14.3976L12.2316 15.6912L13.4316 16.5912L14.4018 15.2976L13.2018 14.3976ZM15.75 21H18V19.5H15.75V21ZM1.5 5.25V3H0V5.25H1.5ZM11.3644 17.2255C12.1427 17.5106 12.9692 17.2078 13.4316 16.5912L12.2316 15.6912C12.1309 15.8255 11.9833 15.8547 11.8803 15.817L11.3644 17.2255ZM4.4088 7.5684C3.79225 8.03082 3.48941 8.8573 3.77453 9.63563L5.183 9.11969C5.14527 9.01668 5.17447 8.86915 5.3088 8.7684L4.4088 7.5684Z" />
</svg>
