<svg width="16" height="16" viewBox="0 0 16 16" fill="none" stroke-width="1.5" stroke-linecap="round" stroke-linejoin="round" xmlns="http://www.w3.org/2000/svg">
<g clip-path="url(#clip0_193_5933)">
<path d="M1 4.23077C1 10.1785 5.82155 15 11.7692 15H13.3846C14.2768 15 15 14.2768 15 13.3846V12.3999C15 12.0292 14.7478 11.7062 14.3882 11.6163L11.2126 10.8224C10.8973 10.7436 10.5655 10.8614 10.3705 11.1213L9.67397 12.0501C9.47181 12.3196 9.12216 12.4388 8.80578 12.3229C6.43156 11.4532 4.54678 9.56844 3.67706 7.19422C3.56117 6.87784 3.68036 6.52819 3.94991 6.32603L4.87866 5.62947C5.13864 5.43448 5.25644 5.10268 5.17762 4.78742L4.38372 1.6118C4.29383 1.25224 3.97077 1 3.60014 1H2.61538C1.72323 1 1 1.72323 1 2.61538V4.23077Z" />
</g>
<defs>
<clipPath id="clip0_193_5933">
<rect width="16" height="16"/>
</clipPath>
</defs>
</svg>
