<svg width="59" height="59" viewBox="0 0 59 59" fill="none" xmlns="http://www.w3.org/2000/svg">
<path d="M21.8824 7.75174C33.7429 3.40657 46.9054 9.58001 51.224 21.513C52.3678 24.6736 52.8053 27.9761 52.5445 31.2323C52.4954 31.8444 51.927 32.2649 51.3291 32.1659C50.7648 32.0725 50.3814 31.5518 50.4247 30.9853C50.6481 28.0576 50.2492 25.0895 49.2205 22.247C45.3037 11.4242 33.3656 5.82535 22.6112 9.76534C11.8546 13.7061 6.2892 25.7175 10.206 36.5403C14.1228 47.3631 26.061 52.9609 36.8176 49.0202C37.3703 48.8177 37.9821 49.105 38.1837 49.6619C38.3847 50.2174 38.0991 50.8322 37.5467 51.0346C25.6845 55.3804 12.522 49.207 8.20339 37.274C3.8848 25.341 10.0203 12.0975 21.8824 7.75174Z" stroke-width="0.2"/>
<path d="M29.8266 27.174L29.8266 27.174C28.7234 27.0562 27.9321 26.7479 27.4165 26.2443C26.9031 25.7428 26.649 25.0338 26.649 24.0827C26.649 22.3807 28.0248 20.9974 29.7139 20.9974C31.4044 20.9974 32.7806 22.3812 32.7806 24.0827C32.7806 24.6738 33.2564 25.1545 33.8461 25.1545C34.4357 25.1545 34.912 24.6739 34.912 24.0827C34.912 21.5675 33.1372 19.4634 30.7807 18.9669V16.3166C30.7807 15.7248 30.3038 15.2447 29.7139 15.2447C29.1257 15.2447 28.6484 15.7248 28.6484 16.3166V18.9664C26.2928 19.463 24.5176 21.567 24.5176 24.0827C24.5176 25.5393 24.9477 26.7405 25.8044 27.6457C26.6836 28.5763 27.9652 29.1304 29.602 29.306L29.6021 29.306C30.9889 29.4536 32.069 29.9178 32.8017 30.6388C33.533 31.3585 33.927 32.3429 33.927 33.5503C33.927 35.8875 32.0367 37.7886 29.7143 37.7886C27.393 37.7886 25.503 35.8875 25.503 33.5503C25.503 32.959 25.0266 32.4789 24.4371 32.4789C23.8481 32.4789 23.3707 32.959 23.3707 33.5503C23.3707 36.7031 25.6578 39.3217 28.6489 39.8346V42.4695C28.6489 43.0612 29.1261 43.5413 29.7143 43.5413C30.3043 43.5413 30.7812 43.0613 30.7812 42.4695V39.8342C33.7727 39.3213 36.0584 36.7026 36.0584 33.5503C36.0584 31.7932 35.4617 30.2993 34.3799 29.1937C33.2988 28.0889 31.74 27.3785 29.8266 27.174Z"  stroke-width="0.2"/>
<path d="M41.2656 42.8504L45.7079 47.1667L54.8537 38.2803" stroke="white" stroke-width="2.7" stroke-linecap="round"/>
</svg>
