<svg width="24" height="24" viewBox="0 0 24 24" fill="none" xmlns="http://www.w3.org/2000/svg">
<g clip-path="url(#clip0_1532_15444)">
<path d="M12 0C15.1826 0 18.2348 1.26428 20.4853 3.51472C22.7357 5.76516 24 8.8174 24 12C24 15.1826 22.7357 18.2348 20.4853 20.4853C18.2348 22.7357 15.1826 24 12 24C8.8174 24 5.76516 22.7357 3.51472 20.4853C1.26428 18.2348 0 15.1826 0 12C0 8.8174 1.26428 5.76516 3.51472 3.51472C5.76516 1.26428 8.8174 0 12 0ZM12 1.5C10.6211 1.5 9.25574 1.77159 7.98182 2.29927C6.70791 2.82694 5.55039 3.60036 4.57538 4.57538C3.60036 5.55039 2.82694 6.70791 2.29926 7.98182C1.77159 9.25574 1.5 10.6211 1.5 12C1.5 13.3789 1.77159 14.7443 2.29926 16.0182C2.82694 17.2921 3.60036 18.4496 4.57538 19.4246C5.55039 20.3996 6.70791 21.1731 7.98182 21.7007C9.25574 22.2284 10.6211 22.5 12 22.5C14.7848 22.5 17.4555 21.3938 19.4246 19.4246C21.3938 17.4555 22.5 14.7848 22.5 12C22.5 9.21523 21.3938 6.54451 19.4246 4.57538C17.4555 2.60625 14.7848 1.5 12 1.5ZM12 17.25C12.2984 17.25 12.5845 17.3685 12.7955 17.5795C13.0065 17.7905 13.125 18.0766 13.125 18.375C13.125 18.6734 13.0065 18.9595 12.7955 19.1705C12.5845 19.3815 12.2984 19.5 12 19.5C11.7016 19.5 11.4155 19.3815 11.2045 19.1705C10.9935 18.9595 10.875 18.6734 10.875 18.375C10.875 18.0766 10.9935 17.7905 11.2045 17.5795C11.4155 17.3685 11.7016 17.25 12 17.25ZM12 5.25C12.7621 5.2501 13.506 5.48236 14.1327 5.91586C14.7595 6.34936 15.2393 6.96351 15.5082 7.67653C15.7772 8.38954 15.8225 9.16757 15.6382 9.90699C15.4539 10.6464 15.0486 11.3121 14.4765 11.8155L14.2455 12.003L13.917 12.2475L13.7865 12.3555C13.7045 12.4257 13.6264 12.5003 13.5525 12.579C13.044 13.119 12.75 13.863 12.75 15C12.75 15.1989 12.671 15.3897 12.5303 15.5303C12.3897 15.671 12.1989 15.75 12 15.75C11.8011 15.75 11.6103 15.671 11.4697 15.5303C11.329 15.3897 11.25 15.1989 11.25 15C11.25 13.482 11.6895 12.372 12.4575 11.553C12.6227 11.378 12.8013 11.216 12.9915 11.0685L13.362 10.791L13.539 10.641C13.8112 10.3858 14.0156 10.0669 14.1339 9.7131C14.2522 9.35926 14.2807 8.98156 14.2167 8.61399C14.1527 8.24642 13.9984 7.90052 13.7675 7.60743C13.5367 7.31434 13.2366 7.08326 12.8942 6.93499C12.5518 6.78671 12.178 6.7259 11.8063 6.75802C11.4346 6.79014 11.0767 6.91419 10.7648 7.119C10.453 7.32382 10.197 7.60296 10.0198 7.93131C9.84267 8.25966 9.74994 8.62691 9.75 9C9.7502 9.19891 9.67137 9.38976 9.53086 9.53055C9.39035 9.67134 9.19966 9.75055 9.00075 9.75075C8.80184 9.75095 8.61099 9.67212 8.4702 9.53161C8.32941 9.3911 8.2502 9.20041 8.25 9.0015C8.2498 8.50892 8.34665 8.02112 8.53502 7.56598C8.72339 7.11083 8.99958 6.69726 9.34782 6.34888C9.69606 6.0005 10.1095 5.72414 10.5646 5.5356C11.0197 5.34705 11.5074 5.25 12 5.25Z" />
</g>
<defs>
<clipPath id="clip0_1532_15444">
<rect width="24" height="24" fill="rgba(var(--white))"/>
</clipPath>
</defs>
</svg>
