<svg width="16" height="15" viewBox="0 0 16 15" fill="none" xmlns="http://www.w3.org/2000/svg">
<path fill-rule="evenodd" clip-rule="evenodd" d="M8 0C8.22733 0 8.44535 0.0901548 8.60609 0.250631C8.76684 0.411108 8.85714 0.628761 8.85714 0.855709V2.04229C10.8194 2.25339 12.6342 3.18115 13.9527 4.6472C15.2712 6.11325 16.0004 8.01413 16 9.98441C16 10.4383 15.8194 10.8736 15.4979 11.1946C15.1764 11.5155 14.7404 11.6958 14.2857 11.6958H1.71429C1.25963 11.6958 0.823594 11.5155 0.502103 11.1946C0.180612 10.8736 7.08999e-09 10.4383 7.08999e-09 9.98441C-8.30288e-05 8.01433 0.729207 6.11373 2.0477 4.64792C3.36619 3.1821 5.18083 2.25451 7.14286 2.04343V0.856849C7.14271 0.74438 7.16477 0.632985 7.20778 0.529034C7.25078 0.425083 7.3139 0.330615 7.3935 0.251034C7.47311 0.171454 7.56765 0.108321 7.67172 0.0652459C7.77579 0.0221712 7.88734 -9.99724e-08 8 0ZM0.891429 13.2886C0.6641 13.2886 0.446083 13.3787 0.285337 13.5392C0.124592 13.6997 0.0342858 13.9173 0.0342858 14.1443C0.0342858 14.3712 0.124592 14.5889 0.285337 14.7494C0.446083 14.9098 0.6641 15 0.891429 15H15.1086C15.3359 15 15.5539 14.9098 15.7147 14.7494C15.8754 14.5889 15.9657 14.3712 15.9657 14.1443C15.9657 13.9173 15.8754 13.6997 15.7147 13.5392C15.5539 13.3787 15.3359 13.2886 15.1086 13.2886H0.891429Z" fill="#262522"/>
</svg>
