<svg width="24" height="24" viewBox="0 0 24 24" fill="none" xmlns="http://www.w3.org/2000/svg">
<path d="M7.74918 19.9453L7.63185 20.686H7.63186L7.74918 19.9453ZM4.05472 16.2508L4.79548 16.1335L4.05472 16.2508ZM19.9453 16.2508L20.686 16.3681V16.3681L19.9453 16.2508ZM16.2508 19.9453L16.3681 20.686H16.3681L16.2508 19.9453ZM19.7111 10.6607C19.4623 10.3295 18.9922 10.2627 18.661 10.5114C18.3298 10.7602 18.263 11.2304 18.5118 11.5615L19.7111 10.6607ZM5.48824 11.5615C5.73701 11.2304 5.67019 10.7602 5.339 10.5114C5.00781 10.2627 4.53766 10.3295 4.28889 10.6607L5.48824 11.5615ZM11.25 16.4444C11.25 16.8587 11.5858 17.1944 12 17.1944C12.4142 17.1944 12.75 16.8587 12.75 16.4444H11.25ZM7.85676 7.08959C7.59941 7.41415 7.65391 7.88589 7.97848 8.14324C8.30304 8.40059 8.77478 8.34609 9.03213 8.02153L7.85676 7.08959ZM9.68698 5.98847L9.09929 5.5225L9.68698 5.98847ZM14.313 5.98847L14.9007 5.5225L14.313 5.98847ZM14.9679 8.02153C15.2252 8.3461 15.697 8.40059 16.0215 8.14324C16.3461 7.88589 16.4006 7.41416 16.1432 7.08959L14.9679 8.02153ZM11.7772 4.01768L11.6592 3.27702L11.6592 3.27702L11.7772 4.01768ZM12.2228 4.01768L12.3408 3.27702L12.3408 3.27702L12.2228 4.01768ZM19.25 13.7778V14.6667H20.75V13.7778H19.25ZM14.6667 19.25H9.33333V20.75H14.6667V19.25ZM4.75 14.6667V13.7778H3.25V14.6667H4.75ZM9.33333 19.25C8.47889 19.25 8.13899 19.2477 7.8665 19.2045L7.63186 20.686C8.05033 20.7523 8.53621 20.75 9.33333 20.75V19.25ZM3.25 14.6667C3.25 15.4638 3.24767 15.9497 3.31395 16.3681L4.79548 16.1335C4.75233 15.861 4.75 15.5211 4.75 14.6667H3.25ZM7.86651 19.2045C6.28568 18.9541 5.04586 17.7143 4.79548 16.1335L3.31395 16.3681C3.66599 18.5908 5.40919 20.334 7.63185 20.686L7.86651 19.2045ZM19.25 14.6667C19.25 15.5211 19.2477 15.861 19.2045 16.1335L20.686 16.3681C20.7523 15.9497 20.75 15.4638 20.75 14.6667H19.25ZM14.6667 20.75C15.4638 20.75 15.9497 20.7523 16.3681 20.686L16.1335 19.2045C15.861 19.2477 15.5211 19.25 14.6667 19.25V20.75ZM19.2045 16.1335C18.9541 17.7143 17.7143 18.9541 16.1335 19.2045L16.3681 20.686C18.5908 20.334 20.334 18.5908 20.686 16.3681L19.2045 16.1335ZM20.75 13.7778C20.75 12.6093 20.3633 11.5289 19.7111 10.6607L18.5118 11.5615C18.9755 12.1789 19.25 12.9452 19.25 13.7778H20.75ZM4.75 13.7778C4.75 12.9452 5.0245 12.1789 5.48824 11.5615L4.28889 10.6607C3.63674 11.5289 3.25 12.6093 3.25 13.7778H4.75ZM12.75 16.4444V4.88889H11.25V16.4444H12.75ZM9.03213 8.02153L10.2747 6.45444L9.09929 5.5225L7.85676 7.08959L9.03213 8.02153ZM13.7253 6.45444L14.9679 8.02153L16.1432 7.08959L14.9007 5.5225L13.7253 6.45444ZM10.2747 6.45444C10.7815 5.81523 11.1225 5.38697 11.4086 5.09982C11.6913 4.81602 11.8268 4.76924 11.8952 4.75834L11.6592 3.27702C11.1238 3.36233 10.7096 3.67609 10.3459 4.0412C9.9855 4.40296 9.58336 4.912 9.09929 5.5225L10.2747 6.45444ZM14.9007 5.5225C14.4166 4.912 14.0145 4.40297 13.6541 4.04121C13.2904 3.67609 12.8763 3.36233 12.3408 3.27702L12.1048 4.75834C12.1733 4.76924 12.3087 4.81602 12.5914 5.09982C12.8775 5.38697 13.2185 5.81523 13.7253 6.45444L14.9007 5.5225ZM11.8952 4.75834C11.9303 4.75275 11.9652 4.75 12 4.75V3.25C11.8859 3.25 11.772 3.25904 11.6592 3.27702L11.8952 4.75834ZM12 4.75C12.0348 4.75 12.0697 4.75275 12.1048 4.75834L12.3408 3.27702C12.228 3.25904 12.1141 3.25 12 3.25V4.75ZM12.75 4.88889V4H11.25V4.88889H12.75Z"/>
</svg>
