<svg width="24" height="24" viewBox="0 0 30 30" fill="none" xmlns="http://www.w3.org/2000/svg">
<path d="M11 8C11 7.44772 10.5523 7 10 7C9.44771 7 9 7.44772 9 8H11ZM10 21H11H10ZM6.78358 17.3787C6.44045 16.9459 5.81146 16.8733 5.37871 17.2164C4.94595 17.5596 4.87329 18.1885 5.21642 18.6213L6.78358 17.3787ZM7.39785 19.763L6.61427 20.3843L7.39785 19.763ZM12.6022 19.763L11.8186 19.1417L12.6022 19.763ZM14.7836 18.6213C15.1267 18.1885 15.0541 17.5596 14.6213 17.2164C14.1885 16.8733 13.5596 16.9459 13.2164 17.3787L14.7836 18.6213ZM9.74933 21.9801L9.59199 22.9677H9.59199L9.74933 21.9801ZM10.2507 21.9801L10.408 22.9677H10.408L10.2507 21.9801ZM19 21C19 21.5523 19.4477 22 20 22C20.5523 22 21 21.5523 21 21H19ZM20 8H19V8L20 8ZM15.2164 10.3787C14.8733 10.8115 14.9459 11.4404 15.3787 11.7836C15.8115 12.1267 16.4404 12.0541 16.7836 11.6213L15.2164 10.3787ZM17.3978 9.23703L16.6143 8.61574V8.61574L17.3978 9.23703ZM22.6022 9.23703L23.3857 8.61574L22.6022 9.23703ZM23.2164 11.6213C23.5596 12.0541 24.1885 12.1267 24.6213 11.7836C25.0541 11.4404 25.1267 10.8115 24.7836 10.3787L23.2164 11.6213ZM19.7493 7.01989L19.592 6.03235L19.592 6.03235L19.7493 7.01989ZM20.2507 7.01989L20.408 6.03235L20.408 6.03235L20.2507 7.01989ZM9 8L9 21H11L11 8H9ZM5.21642 18.6213L6.61427 20.3843L8.18142 19.1417L6.78358 17.3787L5.21642 18.6213ZM13.3857 20.3843L14.7836 18.6213L13.2164 17.3787L11.8186 19.1417L13.3857 20.3843ZM6.61427 20.3843C7.15647 21.0681 7.61524 21.6492 8.0284 22.0639C8.44601 22.4831 8.94099 22.8639 9.59199 22.9677L9.90668 20.9926C9.87832 20.988 9.75494 20.9632 9.44534 20.6524C9.13127 20.3372 8.75398 19.8638 8.18142 19.1417L6.61427 20.3843ZM11.8186 19.1417C11.246 19.8638 10.8687 20.3372 10.5547 20.6524C10.2451 20.9632 10.1217 20.988 10.0933 20.9926L10.408 22.9677C11.059 22.8639 11.554 22.4831 11.9716 22.0639C12.3848 21.6492 12.8435 21.0681 13.3857 20.3843L11.8186 19.1417ZM21 21L21 8L19 8L19 21H21ZM16.7836 11.6213L18.1814 9.85832L16.6143 8.61574L15.2164 10.3787L16.7836 11.6213ZM21.8186 9.85832L23.2164 11.6213L24.7836 10.3787L23.3857 8.61574L21.8186 9.85832ZM18.1814 9.85832C18.754 9.13622 19.1313 8.66284 19.4453 8.34757C19.7549 8.03677 19.8783 8.01195 19.9067 8.00743L19.592 6.03235C18.941 6.13607 18.446 6.51686 18.0284 6.93608C17.6152 7.35083 17.1565 7.93191 16.6143 8.61574L18.1814 9.85832ZM23.3857 8.61574C22.8435 7.93191 22.3848 7.35084 21.9716 6.93608C21.554 6.51686 21.059 6.13607 20.408 6.03235L20.0933 8.00743C20.1217 8.01195 20.2451 8.03677 20.5547 8.34757C20.8687 8.66284 21.246 9.13622 21.8186 9.85832L23.3857 8.61574ZM19.9067 8.00743C19.938 8.00243 19.9692 8 20 8V6C19.8634 6 19.7271 6.01082 19.592 6.03235L19.9067 8.00743ZM20 8C20.0308 8 20.0619 8.00243 20.0933 8.00743L20.408 6.03235C20.2729 6.01083 20.1366 6 20 6V8ZM21 8V7H19V8H21ZM9.59199 22.9677C9.72706 22.9892 9.86339 23 10 23L10 21C9.96917 21 9.93805 20.9976 9.90667 20.9926L9.59199 22.9677ZM10 23C10.1366 23 10.2729 22.9892 10.408 22.9677L10.0933 20.9926C10.0619 20.9976 10.0308 21 10 21L10 23ZM9 21V22H11V21H9Z" />
</svg>
