<svg width="22" height="22" viewBox="0 0 22 22" fill="none" xmlns="http://www.w3.org/2000/svg">
<g id="Group">
<path id="Vector" d="M11 21C16.5228 21 21 16.5228 21 11C21 5.47715 16.5228 1 11 1C5.47715 1 1 5.47715 1 11C1 16.5228 5.47715 21 11 21Z" stroke="#939292" stroke-width="1.5"/>
<path id="Vector_2" d="M11 17C14.3137 17 17 14.3137 17 11C17 7.68629 14.3137 5 11 5C7.68629 5 5 7.68629 5 11C5 14.3137 7.68629 17 11 17Z" stroke="#939292" stroke-width="1.5"/>
<path id="Vector_3" d="M11 13C12.1046 13 13 12.1046 13 11C13 9.89543 12.1046 9 11 9C9.89543 9 9 9.89543 9 11C9 12.1046 9.89543 13 11 13Z" stroke="#939292" stroke-width="1.5"/>
<path id="Vector_4" d="M5 11H9M13 11H17M8 16.196L10 12.732M12 9.26795L14 5.80396M14 16.196L12 12.732M10 9.26795L8 5.80396" stroke="#939292" stroke-width="1.5" stroke-linecap="round"/>
</g>
</svg>
