<svg width="32" height="32" viewBox="0 0 32 32" fill="none" xmlns="http://www.w3.org/2000/svg">
<g clip-path="url(#clip0_2625_18300)">
<path d="M26.7409 29.5639C25.9994 30.0526 25.1893 30.4452 24.329 30.723C23.359 31.0366 22.3272 31.2061 21.259 31.2061C18.4944 31.2061 15.9903 30.08 14.1785 28.2603C12.3666 26.4405 11.2455 23.9259 11.2455 21.1487L11.2459 21.036C11.0647 21.0453 10.8963 21.0497 10.7424 21.0497C9.67457 21.0497 8.64199 20.8802 7.67235 20.5666C6.81214 20.2884 6.00163 19.8958 5.26007 19.4071C5.03679 19.6035 4.78787 19.7662 4.52131 19.8902C4.11686 20.079 3.67192 20.1805 3.21736 20.1805C2.7628 20.1805 2.31786 20.079 1.91341 19.8902C1.51217 19.7034 1.11092 19.4031 0.833938 19.0552C0.66398 18.8314 0.706469 18.5109 0.929339 18.3402C1.28689 18.0664 1.58552 17.729 1.8112 17.3502C2.00601 17.0233 2.14871 16.6642 2.22968 16.2877C1.7643 15.5349 1.39472 14.714 1.13898 13.8448C0.872419 12.9377 0.728516 11.9791 0.728516 10.9919C0.728516 8.21479 1.84968 5.70015 3.6615 3.8804C5.47331 2.06064 7.97739 0.93457 10.7424 0.93457C13.4906 0.93457 15.9823 2.04897 17.7925 3.85221C19.6829 5.62406 20.7555 8.41851 20.7555 10.9919L20.7515 11.1038C20.9199 11.0954 21.0886 11.091 21.259 11.091C24.024 11.091 26.5281 12.217 28.3399 14.0368C30.1517 15.8565 31.2729 18.3716 31.2729 21.1487C31.2729 22.1359 31.129 23.0941 30.8624 24.0011C30.6067 24.8704 30.2371 25.6909 29.7717 26.4445C29.8531 26.821 29.9954 27.1801 30.1906 27.507C30.4163 27.8858 30.7149 28.2236 31.0721 28.497C31.2949 28.6677 31.3374 28.9882 31.1675 29.212C30.8905 29.5599 30.4896 29.8598 30.0884 30.047C29.6835 30.2354 29.239 30.3369 28.784 30.3369C28.3295 30.3369 27.8845 30.2354 27.4797 30.047C27.2131 29.9226 26.9642 29.7603 26.7409 29.5639ZM19.4949 21.6979H23.0231L21.259 18.3857L19.4949 21.6979ZM23.5678 22.7205H18.9501L17.6137 25.2295C17.4822 25.4775 17.1748 25.5713 16.9279 25.4392C16.6809 25.3072 16.5875 24.9984 16.719 24.7504L20.8116 17.0668C20.8573 16.9806 20.9283 16.9065 21.0205 16.857C21.2674 16.725 21.5748 16.8188 21.7063 17.0668L25.7989 24.7504C25.9304 24.9984 25.837 25.3072 25.5901 25.4392C25.3432 25.5713 25.0357 25.4775 24.9043 25.2295L23.5678 22.7205ZM11.3088 20.0106C11.5185 18.1421 12.2384 16.4282 13.3239 15.0135C12.3783 14.722 11.5173 14.2904 10.7416 13.7191C9.58839 14.569 8.24916 15.1089 6.72595 15.3392C6.44817 15.3811 6.18882 15.189 6.14713 14.91C6.10545 14.631 6.29665 14.3705 6.57443 14.3287C7.8415 14.137 8.96146 13.7087 9.93311 13.044C8.85284 12.027 7.97138 10.6912 7.29115 9.03891H6.61131C6.33032 9.03891 6.10224 8.80983 6.10224 8.52761C6.10224 8.24539 6.33032 8.01631 6.61131 8.01631H10.2333V7.15032C10.2333 6.86809 10.4614 6.63901 10.7424 6.63901C11.0234 6.63901 11.2515 6.86809 11.2515 7.15032V8.01631H14.8735C15.1545 8.01631 15.3826 8.24539 15.3826 8.52761C15.3826 8.80983 15.1545 9.03891 14.8735 9.03891H14.1941C13.5139 10.6904 12.6324 12.0258 11.5509 13.0436C12.3001 13.5561 13.1363 13.9285 14.0586 14.1592L14.1785 14.0368C15.6508 12.558 17.58 11.5374 19.735 11.2069L19.7374 10.9919C19.7374 8.4028 18.795 6.44737 17.079 4.5777C15.4547 2.95844 13.2152 1.95717 10.7424 1.95717C8.25838 1.95717 6.00884 2.96891 4.38141 4.60347C2.75398 6.23802 1.74666 8.49701 1.74666 10.9919C1.74666 11.8861 1.87533 12.7477 2.11303 13.5573C2.35995 14.3971 2.72633 15.1874 3.1909 15.9061C3.26546 16.0216 3.28791 16.1561 3.26346 16.2817C3.16966 16.8494 2.97044 17.3896 2.68183 17.8736C2.49023 18.1952 2.25894 18.4932 1.99278 18.7593C2.10181 18.8386 2.21805 18.907 2.33911 18.9634C2.60968 19.0898 2.90991 19.1579 3.21736 19.1579C3.52481 19.1579 3.82504 19.0898 4.09561 18.9634C4.36658 18.8374 4.6115 18.651 4.80952 18.4159C4.98789 18.2041 5.30175 18.1751 5.5154 18.3482C6.26017 18.8833 7.09072 19.3072 7.9826 19.5955C8.84883 19.8757 9.77678 20.0271 10.7424 20.0271C10.9232 20.0271 11.0867 20.0227 11.2331 20.015L11.3088 20.0106ZM13.0882 9.03891H10.7556H10.7424H10.7292H8.39708C9.00796 10.4045 9.77277 11.5113 10.6895 12.3567L10.7424 12.4051C11.6828 11.554 12.4648 10.4315 13.0882 9.03891ZM24.0188 29.7519C24.9107 29.464 25.742 29.0393 26.486 28.5046C26.7 28.3319 27.0135 28.3609 27.1919 28.5727C27.3895 28.8078 27.6344 28.9938 27.9054 29.1202C28.176 29.2462 28.4758 29.3143 28.784 29.3143C29.0919 29.3143 29.3921 29.2462 29.6627 29.1202C29.7837 29.0638 29.8996 28.9954 30.0086 28.9157C29.7429 28.6496 29.5116 28.3516 29.32 28.0304C29.0314 27.5464 28.8321 27.0066 28.7383 26.4389C28.7135 26.3133 28.7355 26.1784 28.8105 26.0629C29.2751 25.3438 29.6414 24.5531 29.8884 23.7137C30.1261 22.9041 30.2547 22.0429 30.2547 21.1487C30.2547 18.6538 29.2474 16.3944 27.62 14.7599C25.9926 13.1253 23.743 12.1136 21.259 12.1136C18.7749 12.1136 16.5258 13.1253 14.8984 14.7599C13.2709 16.3944 12.2636 18.6538 12.2636 21.1487C12.2636 23.6436 13.2709 25.9026 14.8984 27.5372C16.5258 29.1717 18.7753 30.1835 21.259 30.1835C22.2246 30.1835 23.1522 30.0321 24.0188 29.7519Z"/>
</g>
<defs>
<clipPath id="clip0_2625_18300">
<rect width="32" height="32" fill="white"/>
</clipPath>
</defs>
</svg>
