<svg width="24" height="24" viewBox="0 0 24 24" fill="none" stroke='none' xmlns="http://www.w3.org/2000/svg">
<path d="M17.3622 15.8217C18.1988 15.8217 18.8172 15.5624 19.2173 15.0438C19.6174 14.5251 19.8175 13.8574 19.8175 13.0405V6H22V13.0405C22 13.7277 21.8969 14.376 21.6908 14.9854C21.4847 15.5818 21.1816 16.107 20.7814 16.5608C20.3934 17.0016 19.9084 17.3517 19.3264 17.611C18.7566 17.8703 18.1018 18 17.3622 18C16.6225 18 15.9617 17.8703 15.3797 17.611C14.8099 17.3517 14.3249 17.0016 13.9247 16.5608C13.5367 16.107 13.2397 15.5818 13.0335 14.9854C12.8274 14.376 12.7243 13.7277 12.7243 13.0405V6H14.9069V13.0405C14.9069 13.8574 15.1069 14.5251 15.507 15.0438C15.9072 15.5624 16.5255 15.8217 17.3622 15.8217Z" fill="#262424"/>
<path d="M11.3848 17.9028H8.67483L4.21888 11.9514H6.54689C7.12889 11.9514 7.60783 11.8088 7.98371 11.5235C8.37171 11.2383 8.56571 10.752 8.56571 10.0648C8.56571 9.41653 8.39596 8.94327 8.05646 8.64506C7.72908 8.33387 7.34714 8.17828 6.91064 8.17828H4.18251V17.9028H2V6H6.91064C7.44414 6 7.94127 6.10373 8.40202 6.31118C8.8749 6.51864 9.28109 6.80389 9.62059 7.16694C9.97221 7.51702 10.245 7.93193 10.439 8.41167C10.6452 8.87844 10.7482 9.37763 10.7482 9.90924C10.7482 10.3371 10.6815 10.7455 10.5482 11.1345C10.4148 11.5235 10.2329 11.8801 10.0025 12.2042C9.77215 12.5154 9.49327 12.7942 9.1659 13.0405C8.85065 13.2739 8.51115 13.4684 8.14739 13.624L11.3848 17.9028Z" fill="#262424"/>
</svg>
