<svg width="30" height="30" viewBox="0 0 44 44" fill="current" xmlns="http://www.w3.org/2000/svg">
<path d="M16.0637 35C28.1397 35 34.7437 24.9981 34.7437 16.3247C34.7437 16.0407 34.7379 15.7579 34.7251 15.4763C36.0101 14.5468 37.119 13.3959 38 12.0775C36.8236 12.6004 35.5577 12.9523 34.2297 13.1109C35.5852 12.2984 36.6258 11.0129 37.1168 9.48055C35.828 10.2449 34.4181 10.7837 32.9478 11.0738C31.7498 9.79794 30.0442 9 28.1555 9C24.5299 9 21.5898 11.9394 21.5898 15.5627C21.5898 16.0779 21.6475 16.5787 21.7601 17.0594C16.3035 16.7849 11.465 14.173 8.22686 10.2016C7.64364 11.2033 7.33687 12.3417 7.33789 13.5006C7.33789 15.7778 8.49691 17.7881 10.2595 18.9642C9.21691 18.9323 8.1972 18.6508 7.28611 18.1432C7.28514 18.1708 7.28514 18.1976 7.28514 18.2271C7.28514 21.4058 9.54816 24.0598 12.5523 24.6612C11.988 24.8148 11.4058 24.8925 10.8211 24.8921C10.3988 24.8921 9.98719 24.8506 9.58719 24.7738C10.423 27.3817 12.8467 29.2795 15.7203 29.3326C13.4732 31.0934 10.6425 32.1421 7.56605 32.1421C7.0427 32.1426 6.51978 32.1122 6 32.0512C8.90563 33.9131 12.3558 34.9995 16.064 34.9995"/>
</svg>
