<svg width="13" height="18" viewBox="0 0 16 21" fill="none" xmlns="http://www.w3.org/2000/svg">
<path d="M11 5C11 6.65685 9.65685 8 8 8V10C10.7614 10 13 7.76142 13 5H11ZM8 8C6.34315 8 5 6.65685 5 5H3C3 7.76142 5.23858 10 8 10V8ZM5 5C5 3.34315 6.34315 2 8 2V0C5.23858 0 3 2.23858 3 5H5ZM8 2C9.65685 2 11 3.34315 11 5H13C13 2.23858 10.7614 0 8 0V2ZM5 13H11V11H5V13ZM11 19H5V21H11V19ZM5 19C3.34315 19 2 17.6569 2 16H0C0 18.7614 2.23858 21 5 21V19ZM14 16C14 17.6569 12.6569 19 11 19V21C13.7614 21 16 18.7614 16 16H14ZM11 13C12.6569 13 14 14.3431 14 16H16C16 13.2386 13.7614 11 11 11V13ZM5 11C2.23858 11 0 13.2386 0 16H2C2 14.3431 3.34315 13 5 13V11Z" />
</svg>
