<svg width="90" height="90" viewBox="0 0 90 90" fill="none" xmlns="http://www.w3.org/2000/svg">
<g id="logo">
<g clip-path="url(#clip0_1527_22140)">
<g id="logo_2">
<rect id="logo_3" width="90" height="90" fill="white"/>
<path id="Subtract" fill-rule="evenodd" clip-rule="evenodd" d="M42.1385 17.9332C38.4385 18.4282 30.3482 20.7519 27.7357 27.5588C26.791 30.0203 26.1949 32.1612 25.69 33.9746C24.4497 38.4298 23.7597 40.9081 19.802 41.305C15.3472 41.7518 13.8046 37.5026 14.0194 36.0329C14.1345 35.2463 16.7219 26.9787 23.6882 20.8992C29.1951 16.0933 36.4578 13.6686 41.6551 13.1473C48.1214 12.4988 57.2435 13.8705 64.5588 19.6865C67.857 22.3088 75.886 29.0517 76.9275 43.0783C77.9691 57.105 67.7481 74.7251 48.4582 76.7989C32.3503 78.5306 22.1756 68.6608 18.4336 63.184C18.3785 63.1034 18.3228 63.0266 18.2684 62.9515C17.8822 62.4189 17.5605 61.9752 17.9769 60.8904C18.0078 60.81 18.0479 60.7004 18.0978 60.564C19.0089 58.076 23.1998 46.6311 34.5311 39.1491C45.4259 31.9553 51.6953 31.4044 56.6555 30.9685C57.1372 30.9261 57.6066 30.8849 58.0667 30.8388C63.264 30.3175 64.229 28.7333 62.4466 25.937C61.1099 23.8399 52.9043 16.8535 42.1385 17.9332ZM55.6633 60.8072C60.7891 60.2931 64.5281 55.7558 64.0148 50.6728C63.5015 45.5898 58.9302 41.8859 53.8045 42.4C48.6787 42.9141 44.9397 47.4514 45.453 52.5344C45.9663 57.6174 50.5376 61.3212 55.6633 60.8072Z" fill="url(#paint0_linear_1527_22140)"/>
</g>
</g>
</g>
<defs>
<linearGradient id="paint0_linear_1527_22140" x1="27.2659" y1="18.3092" x2="65.979" y2="68.7894" gradientUnits="userSpaceOnUse">
<stop stop-color="#F7941D"/>
<stop offset="0.0001" stop-color="#F7941D"/>
<stop offset="0.325967" stop-color="#EC7C30"/>
<stop offset="0.685083" stop-color="#DA316A"/>
<stop offset="1" stop-color="#D01A7C"/>
</linearGradient>
<clipPath id="clip0_1527_22140">
<rect width="90" height="90" rx="12" fill="white"/>
</clipPath>
</defs>
</svg>
