<svg width="16" height="16" viewBox="0 0 24 24" fill="none" xmlns="http://www.w3.org/2000/svg">
<path d="M2.58927 21.9865C2.28992 22.065 2.01839 21.7886 2.10052 21.4892L3.33631 16.9858C2.46019 15.4672 1.99939 13.7451 2 11.9923C2 6.48233 6.49081 2 11.9999 2C14.6776 2 17.1863 3.04237 19.074 4.92861C20.9617 6.81485 22 9.32664 22 11.9972C22 17.507 17.5092 21.9893 12.0001 21.9893H11.995C10.3209 21.9893 8.67652 21.5674 7.21603 20.7732L2.58927 21.9865Z" />
<path fill-rule="evenodd" clip-rule="evenodd" d="M9.41301 7.11732C9.31029 7.05222 9.20866 7.04828 9.11255 7.04569C8.96349 7.04077 8.78966 7.04077 8.61571 7.04077C8.44189 7.04077 8.16362 7.10538 7.92519 7.36345C7.91109 7.37884 7.89528 7.39545 7.87824 7.41354C7.60978 7.69844 7.02112 8.323 7.02112 9.52278C7.02112 10.7768 7.9258 11.9921 8.07376 12.1907L8.07916 12.1982C8.08872 12.2109 8.10637 12.2371 8.13199 12.2752C8.45709 12.7576 10.0648 15.1432 12.5005 16.1047C14.4772 16.8858 15.0319 16.8185 15.469 16.7654L15.532 16.7579C15.5565 16.755 15.5809 16.7523 15.6053 16.7501C16.0822 16.7054 17.1354 16.1247 17.3539 15.5191C17.4386 15.2791 17.4897 15.0531 17.5165 14.861C17.5574 14.5683 17.5419 14.354 17.5029 14.288C17.4725 14.2365 17.4179 14.195 17.3415 14.1519C17.2878 14.1216 17.2234 14.0906 17.1493 14.0549L17.1373 14.0492C17.0964 14.0295 17.0527 14.0084 17.0061 13.9852C16.7478 13.8562 15.4761 13.2306 15.2377 13.1414C14.9992 13.0521 14.8254 13.0123 14.6565 13.2704C14.4826 13.5285 13.9858 14.1093 13.8368 14.2831C13.6877 14.4568 13.5337 14.4767 13.2754 14.3476C13.2495 14.3347 13.2177 14.3203 13.1807 14.3039L13.1055 14.2712C12.7417 14.1136 12.0219 13.8018 11.1941 13.0619C10.424 12.3769 9.90238 11.528 9.75331 11.27C9.67902 11.1413 9.6751 11.0423 9.70587 10.9593C9.73676 10.8758 9.80284 10.8086 9.86756 10.7438C9.94038 10.671 10.0253 10.568 10.1109 10.4642C10.1594 10.4053 10.2082 10.3461 10.2552 10.2921C10.3253 10.2113 10.3704 10.1422 10.4106 10.0681C10.4357 10.0218 10.4589 9.97344 10.485 9.91917L10.5135 9.86022C10.5978 9.68658 10.5581 9.53767 10.4935 9.40857C10.4799 9.38125 10.4464 9.30273 10.4001 9.19087C10.3505 9.07137 10.2861 8.91384 10.2151 8.74044C10.0388 8.30934 9.82233 7.78003 9.69373 7.49255C9.6013 7.28666 9.50667 7.17664 9.41301 7.11732Z" fill="white"/>
</svg>
